  0
SECTION
  2
HEADER
  9
$ACADVER
  1
AC1018
  9
$ACADMAINTVER
 70
     0
  9
$DWGCODEPAGE
  3
UNDEFINED
  9
$INSBASE
 10
0.0
 20
0.0
 30
0.0
  9
$EXTMIN
 10
1.000000000000000E+20
 20
1.000000000000000E+20
 30
1.000000000000000E+20
  9
$EXTMAX
 10
-1.000000000000000E+20
 20
-1.000000000000000E+20
 30
-1.000000000000000E+20
  9
$LIMMIN
 10
0.0
 20
0.0
  9
$LIMMAX
 10
12.0
 20
9.0
  9
$ORTHOMODE
 70
     0
  9
$REGENMODE
 70
     1
  9
$FILLMODE
 70
     1
  9
$QTEXTMODE
 70
     0
  9
$MIRRTEXT
 70
     1
  9
$LTSCALE
 40
1.0
  9
$ATTMODE
 70
     1
  9
$TEXTSIZE
 40
0.2
  9
$TRACEWID
 40
0.05
  9
$TEXTSTYLE
  7
Standard
  9
$CLAYER
  8
0
  9
$CELTYPE
  6
ByLayer
  9
$CECOLOR
 62
   256
  9
$CELTSCALE
 40
1.0
  9
$DISPSILH
 70
     0
  9
$DIMSCALE
 40
1.0
  9
$DIMASZ
 40
0.18
  9
$DIMEXO
 40
0.0625
  9
$DIMDLI
 40
0.38
  9
$DIMRND
 40
0.0
  9
$DIMDLE
 40
0.0
  9
$DIMEXE
 40
0.18
  9
$DIMTP
 40
0.0
  9
$DIMTM
 40
0.0
  9
$DIMTXT
 40
0.18
  9
$DIMCEN
 40
0.09
  9
$DIMTSZ
 40
0.0
  9
$DIMTOL
 70
     0
  9
$DIMLIM
 70
     0
  9
$DIMTIH
 70
     1
  9
$DIMTOH
 70
     1
  9
$DIMSE1
 70
     0
  9
$DIMSE2
 70
     0
  9
$DIMTAD
 70
     0
  9
$DIMZIN
 70
     0
  9
$DIMBLK
  1

  9
$DIMASO
 70
     1
  9
$DIMSHO
 70
     1
  9
$DIMPOST
  1

  9
$DIMAPOST
  1

  9
$DIMALT
 70
     0
  9
$DIMALTD
 70
     2
  9
$DIMALTF
 40
25.4
  9
$DIMLFAC
 40
1.0
  9
$DIMTOFL
 70
     0
  9
$DIMTVP
 40
0.0
  9
$DIMTIX
 70
     0
  9
$DIMSOXD
 70
     0
  9
$DIMSAH
 70
     0
  9
$DIMBLK1
  1

  9
$DIMBLK2
  1

  9
$DIMSTYLE
  2
Standard
  9
$DIMCLRD
 70
     0
  9
$DIMCLRE
 70
     0
  9
$DIMCLRT
 70
     0
  9
$DIMTFAC
 40
1.0
  9
$DIMGAP
 40
0.09
  9
$DIMJUST
 70
     0
  9
$DIMSD1
 70
     0
  9
$DIMSD2
 70
     0
  9
$DIMTOLJ
 70
     1
  9
$DIMTZIN
 70
     0
  9
$DIMALTZ
 70
     0
  9
$DIMALTTZ
 70
     0
  9
$DIMUPT
 70
     0
  9
$DIMDEC
 70
     4
  9
$DIMTDEC
 70
     4
  9
$DIMALTU
 70
     2
  9
$DIMALTTD
 70
     2
  9
$DIMTXSTY
  7
Standard
  9
$DIMAUNIT
 70
     0
  9
$DIMADEC
 70
     0
  9
$DIMALTRND
 40
0.0
  9
$DIMAZIN
 70
     0
  9
$DIMDSEP
 70
    46
  9
$DIMATFIT
 70
     3
  9
$DIMFRAC
 70
     0
  9
$DIMLDRBLK
  1

  9
$DIMLUNIT
 70
     2
  9
$DIMLWD
 70
    -2
  9
$DIMLWE
 70
    -2
  9
$DIMTMOVE
 70
     0
  9
$LUNITS
 70
     2
  9
$LUPREC
 70
     4
  9
$SKETCHINC
 40
0.1
  9
$FILLETRAD
 40
0.5
  9
$AUNITS
 70
     0
  9
$AUPREC
 70
     0
  9
$MENU
  1
.
  9
$ELEVATION
 40
0.0
  9
$PELEVATION
 40
0.0
  9
$THICKNESS
 40
0.0
  9
$LIMCHECK
 70
     0
  9
$CHAMFERA
 40
0.5
  9
$CHAMFERB
 40
0.5
  9
$CHAMFERC
 40
1.0
  9
$CHAMFERD
 40
0.0
  9
$SKPOLY
 70
     0
  9
$TDCREATE
 40
2456857.929189803
  9
$TDUCREATE
 40
2456858.179189815
  9
$TDUPDATE
 40
2456857.929189803
  9
$TDUUPDATE
 40
2456858.179189815
  9
$TDINDWG
 40
0.0000000116
  9
$TDUSRTIMER
 40
0.0000000116
  9
$USRTIMER
 70
     1
  9
$ANGBASE
 50
0.0
  9
$ANGDIR
 70
     0
  9
$PDMODE
 70
     0
  9
$PDSIZE
 40
0.0
  9
$PLINEWID
 40
0.0
  9
$SPLFRAME
 70
     0
  9
$SPLINETYPE
 70
     6
  9
$SPLINESEGS
 70
     8
  9
$HANDSEED
  5
70
  9
$SURFTAB1
 70
     6
  9
$SURFTAB2
 70
     6
  9
$SURFTYPE
 70
     6
  9
$SURFU
 70
     6
  9
$SURFV
 70
     6
  9
$UCSBASE
  2

  9
$UCSNAME
  2

  9
$UCSORG
 10
0.0
 20
0.0
 30
0.0
  9
$UCSXDIR
 10
1.0
 20
0.0
 30
0.0
  9
$UCSYDIR
 10
0.0
 20
1.0
 30
0.0
  9
$UCSORTHOREF
  2

  9
$UCSORTHOVIEW
 70
     0
  9
$UCSORGTOP
 10
0.0
 20
0.0
 30
0.0
  9
$UCSORGBOTTOM
 10
0.0
 20
0.0
 30
0.0
  9
$UCSORGLEFT
 10
0.0
 20
0.0
 30
0.0
  9
$UCSORGRIGHT
 10
0.0
 20
0.0
 30
0.0
  9
$UCSORGFRONT
 10
0.0
 20
0.0
 30
0.0
  9
$UCSORGBACK
 10
0.0
 20
0.0
 30
0.0
  9
$PUCSBASE
  2

  9
$PUCSNAME
  2

  9
$PUCSORG
 10
0.0
 20
0.0
 30
0.0
  9
$PUCSXDIR
 10
1.0
 20
0.0
 30
0.0
  9
$PUCSYDIR
 10
0.0
 20
1.0
 30
0.0
  9
$PUCSORTHOREF
  2

  9
$PUCSORTHOVIEW
 70
     0
  9
$PUCSORGTOP
 10
0.0
 20
0.0
 30
0.0
  9
$PUCSORGBOTTOM
 10
0.0
 20
0.0
 30
0.0
  9
$PUCSORGLEFT
 10
0.0
 20
0.0
 30
0.0
  9
$PUCSORGRIGHT
 10
0.0
 20
0.0
 30
0.0
  9
$PUCSORGFRONT
 10
0.0
 20
0.0
 30
0.0
  9
$PUCSORGBACK
 10
0.0
 20
0.0
 30
0.0
  9
$USERI1
 70
     0
  9
$USERI2
 70
     0
  9
$USERI3
 70
     0
  9
$USERI4
 70
     0
  9
$USERI5
 70
     0
  9
$USERR1
 40
0.0
  9
$USERR2
 40
0.0
  9
$USERR3
 40
0.0
  9
$USERR4
 40
0.0
  9
$USERR5
 40
0.0
  9
$WORLDVIEW
 70
     1
  9
$SHADEDGE
 70
     3
  9
$SHADEDIF
 70
    70
  9
$TILEMODE
 70
     1
  9
$MAXACTVP
 70
    64
  9
$PINSBASE
 10
0.0
 20
0.0
 30
0.0
  9
$PLIMCHECK
 70
     0
  9
$PEXTMIN
 10
1.000000000000000E+20
 20
1.000000000000000E+20
 30
1.000000000000000E+20
  9
$PEXTMAX
 10
-1.000000000000000E+20
 20
-1.000000000000000E+20
 30
-1.000000000000000E+20
  9
$PLIMMIN
 10
0.0
 20
0.0
  9
$PLIMMAX
 10
12.0
 20
9.0
  9
$UNITMODE
 70
     0
  9
$VISRETAIN
 70
     1
  9
$PLINEGEN
 70
     0
  9
$PSLTSCALE
 70
     1
  9
$TREEDEPTH
 70
  3020
  9
$CMLSTYLE
  2
Standard
  9
$CMLJUST
 70
     0
  9
$CMLSCALE
 40
1.0
  9
$PROXYGRAPHICS
 70
     1
  9
$MEASUREMENT
 70
     0
  9
$CELWEIGHT
370
    -1
  9
$ENDCAPS
280
     0
  9
$JOINSTYLE
280
     0
  9
$LWDISPLAY
290
     1
  9
$INSUNITS
 70
     1
  9
$HYPERLINKBASE
  1

  9
$STYLESHEET
  1

  9
$XEDIT
290
     1
  9
$CEPSNTYPE
380
     0
  9
$PSTYLEMODE
290
     1
  9
$FINGERPRINTGUID
  2
{7C00E757-8601-76E3-88E4-64EABB81BD18}
  9
$VERSIONGUID
  2
{FAEB1C32-E019-11D5-929B-00C0DF256EC4}
  9
$EXTNAMES
290
     1
  9
$PSVPSCALE
 40
0.0
  9
$OLESTARTUP
290
     0
  9
$SORTENTS
280
   127
  9
$INDEXCTL
280
     0
  9
$HIDETEXT
280
     1
  9
$XCLIPFRAME
290
     0
  9
$HALOGAP
280
     0
  9
$OBSCOLOR
 70
   257
  9
$OBSLTYPE
280
     0
  9
$INTERSECTIONDISPLAY
280
     0
  9
$INTERSECTIONCOLOR
 70
   257
  9
$DIMASSOC
280
     2
  9
$PROJECTNAME
  1

  0
ENDSEC
  0
SECTION
  2
CLASSES
  0
CLASS
  1
ACDBDICTIONARYWDFLT
  2
AcDbDictionaryWithDefault
  3
ObjectDBX Classes
 90
        0
 91
        4
280
     0
281
     0
  0
CLASS
  1
VISUALSTYLE
  2
AcDbVisualStyle
  3
ObjectDBX Classes
 90
     4095
 91
        4
280
     0
281
     0
  0
CLASS
  1
MATERIAL
  2
AcDbMaterial
  3
ObjectDBX Classes
 90
     1153
 91
        4
280
     0
281
     0
  0
CLASS
  1
SUN
  2
AcDbSun
  3
SCENEOE
 90
     1024
 91
        4
280
     0
281
     0
  0
ENDSEC
  0
SECTION
  2
TABLES
  0
TABLE
  2
VPORT
  5
8
330
0
100
AcDbSymbolTable
 70
     1
  0
VPORT
  5
29
330
8
100
AcDbSymbolTableRecord
100
AcDbViewportTableRecord
  2
*Active
 70
     0
 10
0.0
 20
0.0
 11
1.0
 21
1.0
 12
0.0
 22
0.0
 13
0.0
 23
0.0
 14
0.5
 24
0.5
 15
0.5
 25
0.5
 16
0.0
 26
0.0
 36
1.0
 17
1.5
 27
-1.5
 37
0.0
 40
3.0
 41
1.0
 42
50.0
 43
0.0
 44
0.0
 50
0.0
 51
0.0
 71
     0
 72
   100
 73
     1
 74
     3
 75
     0
 76
     0
 77
     0
 78
     0
281
     0
 65
     1
110
0.0
120
0.0
130
0.0
111
1.0
121
0.0
131
0.0
112
0.0
122
1.0
132
0.0
 79
     0
146
0.0
  0
ENDTAB
  0
TABLE
  2
LTYPE
  5
5
330
0
100
AcDbSymbolTable
 70
     1
  0
LTYPE
  5
14
330
5
100
AcDbSymbolTableRecord
100
AcDbLinetypeTableRecord
  2
ByBlock
 70
     0
  3

 72
    65
 73
     0
 40
0.0
  0
LTYPE
  5
15
330
5
100
AcDbSymbolTableRecord
100
AcDbLinetypeTableRecord
  2
ByLayer
 70
     0
  3

 72
    65
 73
     0
 40
0.0
  0
LTYPE
  5
16
330
5
100
AcDbSymbolTableRecord
100
AcDbLinetypeTableRecord
  2
Continuous
 70
     0
  3
Solid line
 72
    65
 73
     0
 40
0.0
  0
ENDTAB
  0
TABLE
  2
LAYER
  5
2
330
0
100
AcDbSymbolTable
 70
     2
  0
LAYER
  5
10
330
2
100
AcDbSymbolTableRecord
100
AcDbLayerTableRecord
  2
0
 70
     0
 62
     7
  6
Continuous
370
    -3
390
F
  0
LAYER
  5
40
330
2
100
AcDbSymbolTableRecord
100
AcDbLayerTableRecord
  2
Layer 1
 70
     0
 62
     7
  6
Continuous
370
    -3
390
F
  0
ENDTAB
  0
TABLE
  2
STYLE
  5
3
330
0
100
AcDbSymbolTable
 70
     1
  0
STYLE
  5
11
330
3
100
AcDbSymbolTableRecord
100
AcDbTextStyleTableRecord
  2
Standard
 70
     0
 40
0.0
 41
1.0
 50
0.0
 71
     0
 42
0.2
  3
txt
  4

  0
ENDTAB
  0
TABLE
  2
VIEW
  5
6
330
0
100
AcDbSymbolTable
 70
     0
  0
ENDTAB
  0
TABLE
  2
UCS
  5
7
330
0
100
AcDbSymbolTable
 70
     0
  0
ENDTAB
  0
TABLE
  2
APPID
  5
9
330
0
100
AcDbSymbolTable
 70
     1
  0
APPID
  5
12
330
9
100
AcDbSymbolTableRecord
100
AcDbRegAppTableRecord
  2
ACAD
 70
     0
  0
ENDTAB
  0
TABLE
  2
DIMSTYLE
  5
A
330
0
100
AcDbSymbolTable
 70
     1
100
AcDbDimStyleTable
  0
DIMSTYLE
105
27
330
A
100
AcDbSymbolTableRecord
100
AcDbDimStyleTableRecord
  2
Standard
 70
     0
178
     0
340
11
  0
ENDTAB
  0
TABLE
  2
BLOCK_RECORD
  5
1
330
0
100
AcDbSymbolTable
 70
     1
  0
BLOCK_RECORD
  5
1F
330
1
100
AcDbSymbolTableRecord
100
AcDbBlockTableRecord
  2
*Model_Space
340
22
  0
BLOCK_RECORD
  5
1B
330
1
100
AcDbSymbolTableRecord
100
AcDbBlockTableRecord
  2
*Paper_Space
340
1E
  0
BLOCK_RECORD
  5
23
330
1
100
AcDbSymbolTableRecord
100
AcDbBlockTableRecord
  2
*Paper_Space0
340
26
  0
ENDTAB
  0
ENDSEC
  0
SECTION
  2
BLOCKS
  0
BLOCK
  5
20
330
1F
100
AcDbEntity
  8
0
100
AcDbBlockBegin
  2
*Model_Space
 70
     0
 10
0.0
 20
0.0
 30
0.0
  3
*Model_Space
  1

  0
ENDBLK
  5
21
330
1F
100
AcDbEntity
  8
0
100
AcDbBlockEnd
  0
BLOCK
  5
1C
330
1B
100
AcDbEntity
 67
     1
  8
0
100
AcDbBlockBegin
  2
*Paper_Space
 70
     0
 10
0.0
 20
0.0
 30
0.0
  3
*Paper_Space
  1

  0
ENDBLK
  5
1D
330
1B
100
AcDbEntity
 67
     1
  8
0
100
AcDbBlockEnd
  0
BLOCK
  5
24
330
23
100
AcDbEntity
  8
0
100
AcDbBlockBegin
  2
*Paper_Space0
 70
     0
 10
0.0
 20
0.0
 30
0.0
  3
*Paper_Space0
  1

  0
ENDBLK
  5
25
330
23
100
AcDbEntity
  8
0
100
AcDbBlockEnd
  0
ENDSEC
  0
SECTION
  2
ENTITIES
  0
SPLINE
  5
41
330
1F
100
AcDbEntity
  8
Layer 1
370
     0
100
AcDbSpline
210
0.0
220
0.0
230
1.0
 70
    11
 71
     3
 72
    29
 73
    25
 74
     0
 42
0.0000000001
 43
0.0000000001
 12
1.0
 22
0.0
 32
0.0
 13
1.0
 23
0.0
 33
0.0
 40
0.0
 40
0.0
 40
0.0
 40
0.0
 40
1.0
 40
1.0
 40
1.0
 40
2.0
 40
2.0
 40
2.0
 40
3.0
 40
3.0
 40
3.0
 40
4.0
 40
4.0
 40
4.0
 40
5.0
 40
5.0
 40
5.0
 40
6.0
 40
6.0
 40
6.0
 40
7.0
 40
7.0
 40
7.0
 40
8.0
 40
8.0
 40
8.0
 40
8.0
 10
2.404431502024333
 20
-0.4596705767843458
 30
0.0
 10
2.404431502024333
 20
-0.4596705767843458
 30
0.0
 10
0.6353707313537723
 20
-0.4596705767843458
 30
0.0
 10
0.6353707313537723
 20
-0.4596705767843458
 30
0.0
 10
0.5437044037712945
 20
-0.4596705767843458
 30
0.0
 10
0.4687040646871057
 20
-0.5346700681580437
 30
0.0
 10
0.4687040646871057
 20
-0.6263372434510125
 30
0.0
 10
0.4687040646871057
 20
-0.6263372434510125
 30
0.0
 10
0.4687040646871057
 20
-2.388227230972714
 30
0.0
 10
0.4687040646871057
 20
-2.388227230972714
 30
0.0
 10
0.4687040646871057
 20
-2.479894406265683
 30
0.0
 10
0.5437044037712945
 20
-2.55489389763938
 30
0.0
 10
0.6353707313537723
 20
-2.55489389763938
 30
0.0
 10
0.6353707313537723
 20
-2.55489389763938
 30
0.0
 10
2.404431502024333
 20
-2.55489389763938
 30
0.0
 10
2.404431502024333
 20
-2.55489389763938
 30
0.0
 10
2.496097829606798
 20
-2.55489389763938
 30
0.0
 10
2.571098168690999
 20
-2.479894406265683
 30
0.0
 10
2.571098168690999
 20
-2.388227230972714
 30
0.0
 10
2.571098168690999
 20
-2.388227230972714
 30
0.0
 10
2.571098168690999
 20
-0.6263372434510125
 30
0.0
 10
2.571098168690999
 20
-0.6263372434510125
 30
0.0
 10
2.571098168690999
 20
-0.5346700681580437
 30
0.0
 10
2.496097829606798
 20
-0.4596705767843458
 30
0.0
 10
2.404431502024333
 20
-0.4596705767843458
 30
0.0
  0
SPLINE
  5
42
330
1F
100
AcDbEntity
  8
Layer 1
370
     0
100
AcDbSpline
210
0.0
220
0.0
230
1.0
 70
    11
 71
     3
 72
    77
 73
    73
 74
     0
 42
0.0000000001
 43
0.0000000001
 12
1.0
 22
0.0
 32
0.0
 13
1.0
 23
0.0
 33
0.0
 40
0.0
 40
0.0
 40
0.0
 40
0.0
 40
1.0
 40
1.0
 40
1.0
 40
2.0
 40
2.0
 40
2.0
 40
3.0
 40
3.0
 40
3.0
 40
4.0
 40
4.0
 40
4.0
 40
5.0
 40
5.0
 40
5.0
 40
6.0
 40
6.0
 40
6.0
 40
7.0
 40
7.0
 40
7.0
 40
8.0
 40
8.0
 40
8.0
 40
9.0
 40
9.0
 40
9.0
 40
10.0
 40
10.0
 40
10.0
 40
11.0
 40
11.0
 40
11.0
 40
12.0
 40
12.0
 40
12.0
 40
13.0
 40
13.0
 40
13.0
 40
14.0
 40
14.0
 40
14.0
 40
15.0
 40
15.0
 40
15.0
 40
16.0
 40
16.0
 40
16.0
 40
17.0
 40
17.0
 40
17.0
 40
18.0
 40
18.0
 40
18.0
 40
19.0
 40
19.0
 40
19.0
 40
20.0
 40
20.0
 40
20.0
 40
21.0
 40
21.0
 40
21.0
 40
22.0
 40
22.0
 40
22.0
 40
23.0
 40
23.0
 40
23.0
 40
24.0
 40
24.0
 40
24.0
 40
24.0
 10
2.358921315934923
 20
-0.6057455076111687
 30
0.0
 10
2.358930640750461
 20
-0.6057378782166375
 30
0.0
 10
2.358939965565999
 20
-0.6057294011116028
 30
0.0
 10
2.358949290381537
 20
-0.6057217717170715
 30
0.0
 10
2.358949290381537
 20
-0.6057217717170715
 30
0.0
 10
2.358950138092041
 20
-0.605722619427575
 30
0.0
 10
2.358950138092041
 20
-0.605722619427575
 30
0.0
 10
2.368286821577284
 20
-0.5984136594666375
 30
0.0
 10
2.379896216922336
 20
-0.5938775605625576
 30
0.0
 10
2.392672909630669
 20
-0.5938775605625576
 30
0.0
 10
2.423048072391086
 20
-0.5938775605625576
 30
0.0
 10
2.447672367095947
 20
-0.6185018552674187
 30
0.0
 10
2.447672367095947
 20
-0.6488770180278354
 30
0.0
 10
2.447672367095947
 20
-0.6585095524787903
 30
0.0
 10
2.444978343115912
 20
-0.6674283146858215
 30
0.0
 10
2.44062704510159
 20
-0.675302697552575
 30
0.0
 10
2.44062704510159
 20
-0.675302697552575
 30
0.0
 10
2.44062704510159
 20
-0.675302697552575
 30
0.0
 10
2.44062704510159
 20
-0.675302697552575
 30
0.0
 10
2.44062704510159
 20
-0.675302697552575
 30
0.0
 10
2.440626197391086
 20
-0.6753043929735819
 30
0.0
 10
2.440626197391086
 20
-0.6753043929735819
 30
0.0
 10
2.437337928348117
 20
-0.6812553207079569
 30
0.0
 10
2.433034102121989
 20
-0.6864772174093458
 30
0.0
 10
2.427864763471815
 20
-0.6908200383186214
 30
0.0
 10
2.427236609988742
 20
-0.691354943646325
 30
0.0
 10
2.42661099963718
 20
-0.6918847627109824
 30
0.0
 10
2.42595911026001
 20
-0.6923916935920715
 30
0.0
 10
2.424526479509141
 20
-0.6934903264045715
 30
0.0
 10
2.423086219363742
 20
-0.6945474214024013
 30
0.0
 10
2.421546777089437
 20
-0.695502791139802
 30
0.0
 10
2.419699615902371
 20
-0.6966675453715854
 30
0.0
 10
2.417765140533447
 20
-0.6976932750807742
 30
0.0
 10
2.415778107113308
 20
-0.6986333860291375
 30
0.0
 10
2.414576053619385
 20
-0.6991928749614291
 30
0.0
 10
2.413361284467909
 20
-0.6996913287374708
 30
0.0
 10
2.412114302317301
 20
-0.7001651989088992
 30
0.0
 10
2.409894148508708
 20
-0.7010213865174187
 30
0.0
 10
2.407612959543864
 20
-0.7017317679193158
 30
0.0
 10
2.405261410607232
 20
-0.702292952272627
 30
0.0
 10
2.404321299658881
 20
-0.7025142047140333
 30
0.0
 10
2.403388818105062
 20
-0.7027218937873714
 30
0.0
 10
2.402430905236138
 20
-0.7028939790195888
 30
0.0
 10
2.399257077111138
 20
-0.7034729652934604
 30
0.0
 10
2.396021366119385
 20
-0.7038773232036166
 30
0.0
 10
2.392672909630669
 20
-0.7038773232036166
 30
0.0
 10
2.362296899159749
 20
-0.7038773232036166
 30
0.0
 10
2.337672604454888
 20
-0.6792530284987556
 30
0.0
 10
2.337672604454888
 20
-0.6488770180278354
 30
0.0
 10
2.337672604454888
 20
-0.6454946531189686
 30
0.0
 10
2.338072723812527
 20
-0.642221642865075
 30
0.0
 10
2.338666121164958
 20
-0.6390181448724408
 30
0.0
 10
2.33878649605645
 20
-0.6383560829692416
 30
0.0
 10
2.338879744211833
 20
-0.6376940210660298
 30
0.0
 10
2.339023007286919
 20
-0.6370412839783436
 30
0.0
 10
2.339648617638482
 20
-0.634250621000913
 30
0.0
 10
2.340498871273465
 20
-0.6315523584683735
 30
0.0
 10
2.341537316640218
 20
-0.628943105538686
 30
0.0
 10
2.341967105865479
 20
-0.627841929594663
 30
0.0
 10
2.342446910010444
 20
-0.6267848345968458
 30
0.0
 10
2.342944516075982
 20
-0.6257201102044847
 30
0.0
 10
2.343742211659749
 20
-0.6240407956970936
 30
0.0
 10
2.344633155398899
 20
-0.6224208209249708
 30
0.0
 10
2.345592763688829
 20
-0.6208406885464985
 30
0.0
 10
2.346793121761746
 20
-0.6188290715217464
 30
0.0
 10
2.348118940989176
 20
-0.6169395248095194
 30
0.0
 10
2.349558353424072
 20
-0.6151059269904964
 30
0.0
 10
2.350001706017388
 20
-0.6145481334792243
 30
0.0
 10
2.350451840294732
 20
-0.6140005124939686
 30
0.0
 10
2.350915537940131
 20
-0.6134605209032694
 30
0.0
 10
2.35332727432251
 20
-0.6106206907166375
 30
0.0
 10
2.355986542171902
 20
-0.6080461939175797
 30
0.0
 10
2.358921315934923
 20
-0.6057455076111687
 30
0.0
  0
SPLINE
  5
43
330
1F
100
AcDbEntity
  8
Layer 1
370
     0
100
AcDbSpline
210
0.0
220
0.0
230
1.0
 70
    11
 71
     3
 72
    65
 73
    61
 74
     0
 42
0.0000000001
 43
0.0000000001
 12
1.0
 22
0.0
 32
0.0
 13
1.0
 23
0.0
 33
0.0
 40
0.0
 40
0.0
 40
0.0
 40
0.0
 40
1.0
 40
1.0
 40
1.0
 40
2.0
 40
2.0
 40
2.0
 40
3.0
 40
3.0
 40
3.0
 40
4.0
 40
4.0
 40
4.0
 40
5.0
 40
5.0
 40
5.0
 40
6.0
 40
6.0
 40
6.0
 40
7.0
 40
7.0
 40
7.0
 40
8.0
 40
8.0
 40
8.0
 40
9.0
 40
9.0
 40
9.0
 40
10.0
 40
10.0
 40
10.0
 40
11.0
 40
11.0
 40
11.0
 40
12.0
 40
12.0
 40
12.0
 40
13.0
 40
13.0
 40
13.0
 40
14.0
 40
14.0
 40
14.0
 40
15.0
 40
15.0
 40
15.0
 40
16.0
 40
16.0
 40
16.0
 40
17.0
 40
17.0
 40
17.0
 40
18.0
 40
18.0
 40
18.0
 40
19.0
 40
19.0
 40
19.0
 40
20.0
 40
20.0
 40
20.0
 40
20.0
 10
0.664339542388916
 20
-0.5938775605625576
 30
0.0
 10
0.679352495405409
 20
-0.5938775605625576
 30
0.0
 10
0.6929319699605305
 20
-0.5999251272943158
 30
0.0
 10
0.7028561168246799
 20
-0.6096771889262602
 30
0.0
 10
0.7028561168246799
 20
-0.6096771889262602
 30
0.0
 10
0.7028569645351833
 20
-0.6096771889262602
 30
0.0
 10
0.7028569645351833
 20
-0.6096771889262602
 30
0.0
 10
0.7028569645351833
 20
-0.6096771889262602
 30
0.0
 10
0.7028586599562029
 20
-0.6096797320577833
 30
0.0
 10
0.7028595076666938
 20
-0.6096805797682742
 30
0.0
 10
0.7078448931376139
 20
-0.6145794987678528
 30
0.0
 10
0.7118791474236382
 20
-0.6204185287157694
 30
0.0
 10
0.7147164344787723
 20
-0.626914534303877
 30
0.0
 10
0.7147715356614854
 20
-0.6270391477478875
 30
0.0
 10
0.7148563067118326
 20
-0.6271468069818158
 30
0.0
 10
0.7149105601840549
 20
-0.6272722681363297
 30
0.0
 10
0.7161626285976833
 20
-0.6302002602153354
 30
0.0
 10
0.717073917388916
 20
-0.6332935558425056
 30
0.0
 10
0.7178071869744195
 20
-0.6364555160204569
 30
0.0
 10
0.7179072168138418
 20
-0.6368844575352138
 30
0.0
 10
0.7181055810716417
 20
-0.6372710135247972
 30
0.0
 10
0.7181954383850223
 20
-0.6377033458815681
 30
0.0
 10
0.7189405759175618
 20
-0.6413120494948493
 30
0.0
 10
0.7193398475646973
 20
-0.6450479096836513
 30
0.0
 10
0.7193398475646973
 20
-0.6488770180278354
 30
0.0
 10
0.7193398475646973
 20
-0.6640645994080437
 30
0.0
 10
0.7131837738884946
 20
-0.6778153114848666
 30
0.0
 10
0.7032308048672146
 20
-0.6877682805061214
 30
0.0
 10
0.6957658661736382
 20
-0.6952340669102138
 30
0.0
 10
0.6861655447218279
 20
-0.7005619274245242
 30
0.0
 10
0.6754242049323188
 20
-0.7027600407600403
 30
0.0
 10
0.6718434757656521
 20
-0.7034924626350403
 30
0.0
 10
0.6681364377339807
 20
-0.7038773232036166
 30
0.0
 10
0.664339542388916
 20
-0.7038773232036166
 30
0.0
 10
0.6604146427578396
 20
-0.7038773232036166
 30
0.0
 10
0.6565999454922146
 20
-0.703433970610288
 30
0.0
 10
0.6529081662496057
 20
-0.7026523815260993
 30
0.0
 10
0.6523554590013418
 20
-0.7025328543451097
 30
0.0
 10
0.651856157514784
 20
-0.7022921045621235
 30
0.0
 10
0.6513093842400445
 20
-0.7021564708815681
 30
0.0
 10
0.6481474240621057
 20
-0.7013842066129048
 30
0.0
 10
0.6450676918029785
 20
-0.7004220551914638
 30
0.0
 10
0.6421464814080132
 20
-0.6991292966736687
 30
0.0
 10
0.6419362492031521
 20
-0.6990352008077833
 30
0.0
 10
0.6417531437344021
 20
-0.6988995671272278
 30
0.0
 10
0.6415437592400445
 20
-0.6988020804193158
 30
0.0
 10
0.6349299218919668
 20
-0.6957757539219326
 30
0.0
 10
0.6290688514709473
 20
-0.6914854910638597
 30
0.0
 10
0.624176714155409
 20
-0.6862271428108215
 30
0.0
 10
0.624176714155409
 20
-0.6862271428108215
 30
0.0
 10
0.624176714155409
 20
-0.6862271428108215
 30
0.0
 10
0.624176714155409
 20
-0.6862271428108215
 30
0.0
 10
0.624176714155409
 20
-0.6862271428108215
 30
0.0
 10
0.624176714155409
 20
-0.6862271428108215
 30
0.0
 10
0.624176714155409
 20
-0.6862271428108215
 30
0.0
 10
0.6150426334805085
 20
-0.6764081120491028
 30
0.0
 10
0.6093392372131473
 20
-0.6633457409010993
 30
0.0
 10
0.6093392372131473
 20
-0.6488770180278354
 30
0.0
 10
0.6093392372131473
 20
-0.6185018552674187
 30
0.0
 10
0.6339635319180085
 20
-0.5938775605625576
 30
0.0
 10
0.664339542388916
 20
-0.5938775605625576
 30
0.0
  0
SPLINE
  5
44
330
1F
100
AcDbEntity
  8
Layer 1
370
     0
100
AcDbSpline
210
0.0
220
0.0
230
1.0
 70
    11
 71
     3
 72
    62
 73
    58
 74
     0
 42
0.0000000001
 43
0.0000000001
 12
1.0
 22
0.0
 32
0.0
 13
1.0
 23
0.0
 33
0.0
 40
0.0
 40
0.0
 40
0.0
 40
0.0
 40
1.0
 40
1.0
 40
1.0
 40
2.0
 40
2.0
 40
2.0
 40
3.0
 40
3.0
 40
3.0
 40
4.0
 40
4.0
 40
4.0
 40
5.0
 40
5.0
 40
5.0
 40
6.0
 40
6.0
 40
6.0
 40
7.0
 40
7.0
 40
7.0
 40
8.0
 40
8.0
 40
8.0
 40
9.0
 40
9.0
 40
9.0
 40
10.0
 40
10.0
 40
10.0
 40
11.0
 40
11.0
 40
11.0
 40
12.0
 40
12.0
 40
12.0
 40
13.0
 40
13.0
 40
13.0
 40
14.0
 40
14.0
 40
14.0
 40
15.0
 40
15.0
 40
15.0
 40
16.0
 40
16.0
 40
16.0
 40
17.0
 40
17.0
 40
17.0
 40
18.0
 40
18.0
 40
18.0
 40
19.0
 40
19.0
 40
19.0
 40
19.0
 10
0.7039089732699924
 20
-2.418584591812558
 30
0.0
 10
0.7039089732699924
 20
-2.418584591812558
 30
0.0
 10
0.7039081255594889
 20
-2.418585439523061
 30
0.0
 10
0.7039081255594889
 20
-2.418585439523061
 30
0.0
 10
0.7039081255594889
 20
-2.418585439523061
 30
0.0
 10
0.7039081255594889
 20
-2.418585439523061
 30
0.0
 10
0.7039081255594889
 20
-2.418585439523061
 30
0.0
 10
0.694035689036064
 20
-2.428010284900665
 30
0.0
 10
0.6807325681050618
 20
-2.4338781370057
 30
0.0
 10
0.6660061412387424
 20
-2.4338781370057
 30
0.0
 10
0.6356301307678223
 20
-2.4338781370057
 30
0.0
 10
0.6110058360629611
 20
-2.409253842300839
 30
0.0
 10
0.6110058360629611
 20
-2.378877831829918
 30
0.0
 10
0.6110058360629611
 20
-2.360891958077748
 30
0.0
 10
0.6197643809848361
 20
-2.345073680082957
 30
0.0
 10
0.6331124305725223
 20
-2.335038483142853
 30
0.0
 10
0.6331404050191243
 20
-2.335017290380266
 30
0.0
 10
0.6331632932027307
 20
-2.334993554486168
 30
0.0
 10
0.6331912676493326
 20
-2.334973209434085
 30
0.0
 10
0.6360226207309299
 20
-2.332853085464901
 30
0.0
 10
0.6390438609653049
 20
-2.331017792224884
 30
0.0
 10
0.6422600746154785
 20
-2.329468177424537
 30
0.0
 10
0.6425923771328396
 20
-2.329304569297367
 30
0.0
 10
0.6428941620720757
 20
-2.329098575645023
 30
0.0
 10
0.6432307031419668
 20
-2.32894174920188
 30
0.0
 10
0.6461434364318973
 20
-2.327610843711429
 30
0.0
 10
0.649205366770439
 20
-2.32660037279129
 30
0.0
 10
0.6523630883958604
 20
-2.325789113839467
 30
0.0
 10
0.6530268457200918
 20
-2.325614485475752
 30
0.0
 10
0.6536397404140896
 20
-2.325333045588599
 30
0.0
 10
0.6543136702643501
 20
-2.325183848539988
 30
0.0
 10
0.6580893728468279
 20
-2.324364960193634
 30
0.0
 10
0.6619854503207863
 20
-2.323877526654137
 30
0.0
 10
0.6660061412387424
 20
-2.323877526654137
 30
0.0
 10
0.6698030365837945
 20
-2.323877526654137
 30
0.0
 10
0.6735100746154785
 20
-2.324262387222714
 30
0.0
 10
0.6770908037821451
 20
-2.324994809097714
 30
0.0
 10
0.6878321435716417
 20
-2.327192922433217
 30
0.0
 10
0.6974324650234646
 20
-2.332521630658043
 30
0.0
 10
0.704897403717041
 20
-2.33998656935162
 30
0.0
 10
0.7148503727383083
 20
-2.349939538372887
 30
0.0
 10
0.7210064464145363
 20
-2.363689402739207
 30
0.0
 10
0.7210064464145363
 20
-2.378877831829918
 30
0.0
 10
0.7210064464145363
 20
-2.382756955093808
 30
0.0
 10
0.720583438873291
 20
-2.386533505386776
 30
0.0
 10
0.7198196517096751
 20
-2.390186289946238
 30
0.0
 10
0.7197086016337076
 20
-2.39070932732688
 30
0.0
 10
0.7194763289557563
 20
-2.391179806656308
 30
0.0
 10
0.7193508678012424
 20
-2.391697757773929
 30
0.0
 10
0.718598100874159
 20
-2.394833438926273
 30
0.0
 10
0.7176707055833604
 20
-2.397897064685822
 30
0.0
 10
0.7164067692226833
 20
-2.400797930028703
 30
0.0
 10
0.7163321706983777
 20
-2.400968319839901
 30
0.0
 10
0.7162185774909251
 20
-2.401114973757002
 30
0.0
 10
0.7161422835456001
 20
-2.4012853635682
 30
0.0
 10
0.7132058143615723
 20
-2.407842404312558
 30
0.0
 10
0.7090367741055085
 20
-2.413689063655005
 30
0.0
 10
0.7039089732699924
 20
-2.418584591812558
 30
0.0
  0
SPLINE
  5
45
330
1F
100
AcDbEntity
  8
Layer 1
370
     0
100
AcDbSpline
210
0.0
220
0.0
230
1.0
 70
    11
 71
     3
 72
    77
 73
    73
 74
     0
 42
0.0000000001
 43
0.0000000001
 12
1.0
 22
0.0
 32
0.0
 13
1.0
 23
0.0
 33
0.0
 40
0.0
 40
0.0
 40
0.0
 40
0.0
 40
1.0
 40
1.0
 40
1.0
 40
2.0
 40
2.0
 40
2.0
 40
3.0
 40
3.0
 40
3.0
 40
4.0
 40
4.0
 40
4.0
 40
5.0
 40
5.0
 40
5.0
 40
6.0
 40
6.0
 40
6.0
 40
7.0
 40
7.0
 40
7.0
 40
8.0
 40
8.0
 40
8.0
 40
9.0
 40
9.0
 40
9.0
 40
10.0
 40
10.0
 40
10.0
 40
11.0
 40
11.0
 40
11.0
 40
12.0
 40
12.0
 40
12.0
 40
13.0
 40
13.0
 40
13.0
 40
14.0
 40
14.0
 40
14.0
 40
15.0
 40
15.0
 40
15.0
 40
16.0
 40
16.0
 40
16.0
 40
17.0
 40
17.0
 40
17.0
 40
18.0
 40
18.0
 40
18.0
 40
19.0
 40
19.0
 40
19.0
 40
20.0
 40
20.0
 40
20.0
 40
21.0
 40
21.0
 40
21.0
 40
22.0
 40
22.0
 40
22.0
 40
23.0
 40
23.0
 40
23.0
 40
24.0
 40
24.0
 40
24.0
 40
24.0
 10
2.392672909630669
 20
-2.4338781370057
 30
0.0
 10
2.379895369211833
 20
-2.4338781370057
 30
0.0
 10
2.368286821577284
 20
-2.42934203810162
 30
0.0
 10
2.358949290381537
 20
-2.422033078140683
 30
0.0
 10
2.358949290381537
 20
-2.422033078140683
 30
0.0
 10
2.358949290381537
 20
-2.422033078140683
 30
0.0
 10
2.358949290381537
 20
-2.422033078140683
 30
0.0
 10
2.358949290381537
 20
-2.422033078140683
 30
0.0
 10
2.358939117855496
 20
-2.422024601035648
 30
0.0
 10
2.358939117855496
 20
-2.422024601035648
 30
0.0
 10
2.355995019276937
 20
-2.4197179807557
 30
0.0
 10
2.353328122033013
 20
-2.417136702272627
 30
0.0
 10
2.350909603966607
 20
-2.414287547270457
 30
0.0
 10
2.350450144873725
 20
-2.413751794232262
 30
0.0
 10
2.350003401438395
 20
-2.41320925951004
 30
0.0
 10
2.349564287397596
 20
-2.412656552261776
 30
0.0
 10
2.348118940989176
 20
-2.410814477337731
 30
0.0
 10
2.346788035498725
 20
-2.40891730123096
 30
0.0
 10
2.345582591162787
 20
-2.406897207101186
 30
0.0
 10
2.344628916846381
 20
-2.405324704117245
 30
0.0
 10
2.343742211659749
 20
-2.403712358739641
 30
0.0
 10
2.342947906917996
 20
-2.402041521337297
 30
0.0
 10
2.34244860543145
 20
-2.400973406102922
 30
0.0
 10
2.341967953575982
 20
-2.399912920263078
 30
0.0
 10
2.341536468929715
 20
-2.398809201187558
 30
0.0
 10
2.340498871273465
 20
-2.396200795968373
 30
0.0
 10
2.339648617638482
 20
-2.393503381146325
 30
0.0
 10
2.339023007286919
 20
-2.390713565879398
 30
0.0
 10
2.338879744211833
 20
-2.390060828791724
 30
0.0
 10
2.33878649605645
 20
-2.389398766888512
 30
0.0
 10
2.338666121164958
 20
-2.388736704985301
 30
0.0
 10
2.338072723812527
 20
-2.385533206992679
 30
0.0
 10
2.337672604454888
 20
-2.382260196738773
 30
0.0
 10
2.337672604454888
 20
-2.378877831829918
 30
0.0
 10
2.337672604454888
 20
-2.348501821358998
 30
0.0
 10
2.362296899159749
 20
-2.323877526654137
 30
0.0
 10
2.392672909630669
 20
-2.323877526654137
 30
0.0
 10
2.396021366119385
 20
-2.323877526654137
 30
0.0
 10
2.399257077111138
 20
-2.324281884564293
 30
0.0
 10
2.402430905236138
 20
-2.324860870838165
 30
0.0
 10
2.403388818105062
 20
-2.32503295607037
 30
0.0
 10
2.404321299658881
 20
-2.325240645143721
 30
0.0
 10
2.405261410607232
 20
-2.325461897585127
 30
0.0
 10
2.407612959543864
 20
-2.326023081938426
 30
0.0
 10
2.409894148508708
 20
-2.326733463340335
 30
0.0
 10
2.412114302317301
 20
-2.327589650948842
 30
0.0
 10
2.413361284467909
 20
-2.328063521120283
 30
0.0
 10
2.414576053619385
 20
-2.328561974896325
 30
0.0
 10
2.415778107113308
 20
-2.329121463828617
 30
0.0
 10
2.417765140533447
 20
-2.330061574776967
 30
0.0
 10
2.419699615902371
 20
-2.331087304486168
 30
0.0
 10
2.421546777089437
 20
-2.332252058717939
 30
0.0
 10
2.423086219363742
 20
-2.333207428455353
 30
0.0
 10
2.424526479509141
 20
-2.334264523453183
 30
0.0
 10
2.42595911026001
 20
-2.335363156265683
 30
0.0
 10
2.42661099963718
 20
-2.335870087146759
 30
0.0
 10
2.427236609988742
 20
-2.336399906211429
 30
0.0
 10
2.427864763471815
 20
-2.33693481153912
 30
0.0
 10
2.433034102121989
 20
-2.341277632448408
 30
0.0
 10
2.437337928348117
 20
-2.346499529149797
 30
0.0
 10
2.440626197391086
 20
-2.352450456884172
 30
0.0
 10
2.440626197391086
 20
-2.352450456884172
 30
0.0
 10
2.44062704510159
 20
-2.352451304594676
 30
0.0
 10
2.44062704510159
 20
-2.352452152305179
 30
0.0
 10
2.44062704510159
 20
-2.352452152305179
 30
0.0
 10
2.44062704510159
 20
-2.352452152305179
 30
0.0
 10
2.44062704510159
 20
-2.352452152305179
 30
0.0
 10
2.444978343115912
 20
-2.360326535171933
 30
0.0
 10
2.447672367095947
 20
-2.369245297378964
 30
0.0
 10
2.447672367095947
 20
-2.378877831829918
 30
0.0
 10
2.447672367095947
 20
-2.409253842300839
 30
0.0
 10
2.423048072391086
 20
-2.4338781370057
 30
0.0
 10
2.392672909630669
 20
-2.4338781370057
 30
0.0
  0
SPLINE
  5
46
330
1F
100
AcDbEntity
  8
Layer 1
370
     0
100
AcDbSpline
210
0.0
220
0.0
230
1.0
 70
    11
 71
     3
 72
    71
 73
    67
 74
     0
 42
0.0000000001
 43
0.0000000001
 12
1.0
 22
0.0
 32
0.0
 13
1.0
 23
0.0
 33
0.0
 40
0.0
 40
0.0
 40
0.0
 40
0.0
 40
1.0
 40
1.0
 40
1.0
 40
2.0
 40
2.0
 40
2.0
 40
3.0
 40
3.0
 40
3.0
 40
4.0
 40
4.0
 40
4.0
 40
5.0
 40
5.0
 40
5.0
 40
6.0
 40
6.0
 40
6.0
 40
7.0
 40
7.0
 40
7.0
 40
8.0
 40
8.0
 40
8.0
 40
9.0
 40
9.0
 40
9.0
 40
10.0
 40
10.0
 40
10.0
 40
11.0
 40
11.0
 40
11.0
 40
12.0
 40
12.0
 40
12.0
 40
13.0
 40
13.0
 40
13.0
 40
14.0
 40
14.0
 40
14.0
 40
15.0
 40
15.0
 40
15.0
 40
16.0
 40
16.0
 40
16.0
 40
17.0
 40
17.0
 40
17.0
 40
18.0
 40
18.0
 40
18.0
 40
19.0
 40
19.0
 40
19.0
 40
20.0
 40
20.0
 40
20.0
 40
21.0
 40
21.0
 40
21.0
 40
22.0
 40
22.0
 40
22.0
 40
22.0
 10
2.464453644222683
 20
-2.267211470339033
 30
0.0
 10
2.464453644222683
 20
-2.276018334759606
 30
0.0
 10
2.463558461931016
 20
-2.28460564215978
 30
0.0
 10
2.462225861019558
 20
-2.29305307732688
 30
0.0
 10
2.443211714426676
 20
-2.277614573637644
 30
0.0
 10
2.419016361236572
 20
-2.268321971098582
 30
0.0
 10
2.392672909630669
 20
-2.268321971098582
 30
0.0
 10
2.331712351904975
 20
-2.268321971098582
 30
0.0
 10
2.282117048899333
 20
-2.317917274104224
 30
0.0
 10
2.282117048899333
 20
-2.378877831829918
 30
0.0
 10
2.282117048899333
 20
-2.398908383316464
 30
0.0
 10
2.287554264068604
 20
-2.417658044232262
 30
0.0
 10
2.296907054053412
 20
-2.4338781370057
 30
0.0
 10
2.296907054053412
 20
-2.4338781370057
 30
0.0
 10
0.7730490896437029
 20
-2.4338781370057
 30
0.0
 10
0.7730490896437029
 20
-2.4338781370057
 30
0.0
 10
0.7693581581115723
 20
-2.4338781370057
 30
0.0
 10
0.7657435205247667
 20
-2.433560245566898
 30
0.0
 10
0.7621102333068973
 20
-2.433321191204918
 30
0.0
 10
0.7712629636128743
 20
-2.417229950428009
 30
0.0
 10
0.7765620019700918
 20
-2.398676110638512
 30
0.0
 10
0.7765620019700918
 20
-2.378877831829918
 30
0.0
 10
0.7765620019700918
 20
-2.317917274104224
 30
0.0
 10
0.7269666989644368
 20
-2.268321971098582
 30
0.0
 10
0.6660061412387424
 20
-2.268321971098582
 30
0.0
 10
0.644475142161064
 20
-2.268321971098582
 30
0.0
 10
0.6244276364644368
 20
-2.274606049060822
 30
0.0
 10
0.6074166297912723
 20
-2.285294830799103
 30
0.0
 10
0.6067672835456001
 20
-2.279347293906742
 30
0.0
 10
0.6063824229770363
 20
-2.273324310779572
 30
0.0
 10
0.6063824229770363
 20
-2.267211470339033
 30
0.0
 10
0.6063824229770363
 20
-2.267211470339033
 30
0.0
 10
0.6063824229770363
 20
-0.7605433795187208
 30
0.0
 10
0.6063824229770363
 20
-0.7605433795187208
 30
0.0
 10
0.6063824229770363
 20
-0.754752669069502
 30
0.0
 10
0.606690141889784
 20
-0.749029775460561
 30
0.0
 10
0.607274214426689
 20
-0.7433865666389465
 30
0.0
 10
0.6239588525560167
 20
-0.7534989052348666
 30
0.0
 10
0.6434460216098361
 20
-0.7594328787591722
 30
0.0
 10
0.664339542388916
 20
-0.7594328787591722
 30
0.0
 10
0.7253001001146104
 20
-0.7594328787591722
 30
0.0
 10
0.7748954031202527
 20
-0.7098375757535298
 30
0.0
 10
0.7748954031202527
 20
-0.6488770180278354
 30
0.0
 10
0.7748954031202527
 20
-0.6291134953498714
 30
0.0
 10
0.7696167098151313
 20
-0.610587630007002
 30
0.0
 10
0.7604936493767632
 20
-0.5945158865716722
 30
0.0
 10
0.764653364817314
 20
-0.5942013859748714
 30
0.0
 10
0.7688122325473361
 20
-0.5938767128520541
 30
0.0
 10
0.7730490896437029
 20
-0.5938767128520541
 30
0.0
 10
0.7730490896437029
 20
-0.5938767128520541
 30
0.0
 10
2.296907054053412
 20
-0.5938767128520541
 30
0.0
 10
2.296907054053412
 20
-0.5938767128520541
 30
0.0
 10
2.287554264068604
 20
-0.6100968056254916
 30
0.0
 10
2.282117048899333
 20
-0.6288464665412903
 30
0.0
 10
2.282117048899333
 20
-0.6488770180278354
 30
0.0
 10
2.282117048899333
 20
-0.7098375757535298
 30
0.0
 10
2.331712351904975
 20
-0.7594328787591722
 30
0.0
 10
2.392672909630669
 20
-0.7594328787591722
 30
0.0
 10
2.419016361236572
 20
-0.7594328787591722
 30
0.0
 10
2.443211714426676
 20
-0.7501402762201097
 30
0.0
 10
2.462225861019558
 20
-0.7347017725308735
 30
0.0
 10
2.463558461931016
 20
-0.7431492076979743
 30
0.0
 10
2.464453644222683
 20
-0.7517365150981352
 30
0.0
 10
2.464453644222683
 20
-0.7605433795187208
 30
0.0
 10
2.464453644222683
 20
-0.7605433795187208
 30
0.0
 10
2.464453644222683
 20
-2.267211470339033
 30
0.0
 10
2.464453644222683
 20
-2.267211470339033
 30
0.0
  0
HATCH
  5
47
330
1F
100
AcDbEntity
  8
Layer 1
 62
     3
100
AcDbHatch
 10
0.0
 20
0.0
 30
0.0
210
0.0
220
0.0
230
1.0
  2
SOLID
 70
     1
 71
     0
 91
        6
 92
        1
 93
        1
 72
     4
 94
        3
 73
     0
 74
     1
 95
       29
 96
       25
 40
0.0
 40
0.0
 40
0.0
 40
0.0
 40
1.0
 40
1.0
 40
1.0
 40
2.0
 40
2.0
 40
2.0
 40
3.0
 40
3.0
 40
3.0
 40
4.0
 40
4.0
 40
4.0
 40
5.0
 40
5.0
 40
5.0
 40
6.0
 40
6.0
 40
6.0
 40
7.0
 40
7.0
 40
7.0
 40
8.0
 40
8.0
 40
8.0
 40
8.0
 10
2.404431502024333
 20
-0.4596705767843458
 10
2.404431502024333
 20
-0.4596705767843458
 10
0.6353707313537723
 20
-0.4596705767843458
 10
0.6353707313537723
 20
-0.4596705767843458
 10
0.5437044037712945
 20
-0.4596705767843458
 10
0.4687040646871057
 20
-0.5346700681580437
 10
0.4687040646871057
 20
-0.6263372434510125
 10
0.4687040646871057
 20
-0.6263372434510125
 10
0.4687040646871057
 20
-2.388227230972714
 10
0.4687040646871057
 20
-2.388227230972714
 10
0.4687040646871057
 20
-2.479894406265683
 10
0.5437044037712945
 20
-2.55489389763938
 10
0.6353707313537723
 20
-2.55489389763938
 10
0.6353707313537723
 20
-2.55489389763938
 10
2.404431502024333
 20
-2.55489389763938
 10
2.404431502024333
 20
-2.55489389763938
 10
2.496097829606798
 20
-2.55489389763938
 10
2.571098168690999
 20
-2.479894406265683
 10
2.571098168690999
 20
-2.388227230972714
 10
2.571098168690999
 20
-2.388227230972714
 10
2.571098168690999
 20
-0.6263372434510125
 10
2.571098168690999
 20
-0.6263372434510125
 10
2.571098168690999
 20
-0.5346700681580437
 10
2.496097829606798
 20
-0.4596705767843458
 10
2.404431502024333
 20
-0.4596705767843458
 97
        0
 92
        1
 93
        1
 72
     4
 94
        3
 73
     0
 74
     1
 95
       77
 96
       73
 40
0.0
 40
0.0
 40
0.0
 40
0.0
 40
1.0
 40
1.0
 40
1.0
 40
2.0
 40
2.0
 40
2.0
 40
3.0
 40
3.0
 40
3.0
 40
4.0
 40
4.0
 40
4.0
 40
5.0
 40
5.0
 40
5.0
 40
6.0
 40
6.0
 40
6.0
 40
7.0
 40
7.0
 40
7.0
 40
8.0
 40
8.0
 40
8.0
 40
9.0
 40
9.0
 40
9.0
 40
10.0
 40
10.0
 40
10.0
 40
11.0
 40
11.0
 40
11.0
 40
12.0
 40
12.0
 40
12.0
 40
13.0
 40
13.0
 40
13.0
 40
14.0
 40
14.0
 40
14.0
 40
15.0
 40
15.0
 40
15.0
 40
16.0
 40
16.0
 40
16.0
 40
17.0
 40
17.0
 40
17.0
 40
18.0
 40
18.0
 40
18.0
 40
19.0
 40
19.0
 40
19.0
 40
20.0
 40
20.0
 40
20.0
 40
21.0
 40
21.0
 40
21.0
 40
22.0
 40
22.0
 40
22.0
 40
23.0
 40
23.0
 40
23.0
 40
24.0
 40
24.0
 40
24.0
 40
24.0
 10
2.358921315934923
 20
-0.6057455076111687
 10
2.358930640750461
 20
-0.6057378782166375
 10
2.358939965565999
 20
-0.6057294011116028
 10
2.358949290381537
 20
-0.6057217717170715
 10
2.358949290381537
 20
-0.6057217717170715
 10
2.358950138092041
 20
-0.605722619427575
 10
2.358950138092041
 20
-0.605722619427575
 10
2.368286821577284
 20
-0.5984136594666375
 10
2.379896216922336
 20
-0.5938775605625576
 10
2.392672909630669
 20
-0.5938775605625576
 10
2.423048072391086
 20
-0.5938775605625576
 10
2.447672367095947
 20
-0.6185018552674187
 10
2.447672367095947
 20
-0.6488770180278354
 10
2.447672367095947
 20
-0.6585095524787903
 10
2.444978343115912
 20
-0.6674283146858215
 10
2.44062704510159
 20
-0.675302697552575
 10
2.44062704510159
 20
-0.675302697552575
 10
2.44062704510159
 20
-0.675302697552575
 10
2.44062704510159
 20
-0.675302697552575
 10
2.44062704510159
 20
-0.675302697552575
 10
2.440626197391086
 20
-0.6753043929735819
 10
2.440626197391086
 20
-0.6753043929735819
 10
2.437337928348117
 20
-0.6812553207079569
 10
2.433034102121989
 20
-0.6864772174093458
 10
2.427864763471815
 20
-0.6908200383186214
 10
2.427236609988742
 20
-0.691354943646325
 10
2.42661099963718
 20
-0.6918847627109824
 10
2.42595911026001
 20
-0.6923916935920715
 10
2.424526479509141
 20
-0.6934903264045715
 10
2.423086219363742
 20
-0.6945474214024013
 10
2.421546777089437
 20
-0.695502791139802
 10
2.419699615902371
 20
-0.6966675453715854
 10
2.417765140533447
 20
-0.6976932750807742
 10
2.415778107113308
 20
-0.6986333860291375
 10
2.414576053619385
 20
-0.6991928749614291
 10
2.413361284467909
 20
-0.6996913287374708
 10
2.412114302317301
 20
-0.7001651989088992
 10
2.409894148508708
 20
-0.7010213865174187
 10
2.407612959543864
 20
-0.7017317679193158
 10
2.405261410607232
 20
-0.702292952272627
 10
2.404321299658881
 20
-0.7025142047140333
 10
2.403388818105062
 20
-0.7027218937873714
 10
2.402430905236138
 20
-0.7028939790195888
 10
2.399257077111138
 20
-0.7034729652934604
 10
2.396021366119385
 20
-0.7038773232036166
 10
2.392672909630669
 20
-0.7038773232036166
 10
2.362296899159749
 20
-0.7038773232036166
 10
2.337672604454888
 20
-0.6792530284987556
 10
2.337672604454888
 20
-0.6488770180278354
 10
2.337672604454888
 20
-0.6454946531189686
 10
2.338072723812527
 20
-0.642221642865075
 10
2.338666121164958
 20
-0.6390181448724408
 10
2.33878649605645
 20
-0.6383560829692416
 10
2.338879744211833
 20
-0.6376940210660298
 10
2.339023007286919
 20
-0.6370412839783436
 10
2.339648617638482
 20
-0.634250621000913
 10
2.340498871273465
 20
-0.6315523584683735
 10
2.341537316640218
 20
-0.628943105538686
 10
2.341967105865479
 20
-0.627841929594663
 10
2.342446910010444
 20
-0.6267848345968458
 10
2.342944516075982
 20
-0.6257201102044847
 10
2.343742211659749
 20
-0.6240407956970936
 10
2.344633155398899
 20
-0.6224208209249708
 10
2.345592763688829
 20
-0.6208406885464985
 10
2.346793121761746
 20
-0.6188290715217464
 10
2.348118940989176
 20
-0.6169395248095194
 10
2.349558353424072
 20
-0.6151059269904964
 10
2.350001706017388
 20
-0.6145481334792243
 10
2.350451840294732
 20
-0.6140005124939686
 10
2.350915537940131
 20
-0.6134605209032694
 10
2.35332727432251
 20
-0.6106206907166375
 10
2.355986542171902
 20
-0.6080461939175797
 10
2.358921315934923
 20
-0.6057455076111687
 97
        0
 92
        1
 93
        1
 72
     4
 94
        3
 73
     0
 74
     1
 95
       65
 96
       61
 40
0.0
 40
0.0
 40
0.0
 40
0.0
 40
1.0
 40
1.0
 40
1.0
 40
2.0
 40
2.0
 40
2.0
 40
3.0
 40
3.0
 40
3.0
 40
4.0
 40
4.0
 40
4.0
 40
5.0
 40
5.0
 40
5.0
 40
6.0
 40
6.0
 40
6.0
 40
7.0
 40
7.0
 40
7.0
 40
8.0
 40
8.0
 40
8.0
 40
9.0
 40
9.0
 40
9.0
 40
10.0
 40
10.0
 40
10.0
 40
11.0
 40
11.0
 40
11.0
 40
12.0
 40
12.0
 40
12.0
 40
13.0
 40
13.0
 40
13.0
 40
14.0
 40
14.0
 40
14.0
 40
15.0
 40
15.0
 40
15.0
 40
16.0
 40
16.0
 40
16.0
 40
17.0
 40
17.0
 40
17.0
 40
18.0
 40
18.0
 40
18.0
 40
19.0
 40
19.0
 40
19.0
 40
20.0
 40
20.0
 40
20.0
 40
20.0
 10
0.664339542388916
 20
-0.5938775605625576
 10
0.679352495405409
 20
-0.5938775605625576
 10
0.6929319699605305
 20
-0.5999251272943158
 10
0.7028561168246799
 20
-0.6096771889262602
 10
0.7028561168246799
 20
-0.6096771889262602
 10
0.7028569645351833
 20
-0.6096771889262602
 10
0.7028569645351833
 20
-0.6096771889262602
 10
0.7028569645351833
 20
-0.6096771889262602
 10
0.7028586599562029
 20
-0.6096797320577833
 10
0.7028595076666938
 20
-0.6096805797682742
 10
0.7078448931376139
 20
-0.6145794987678528
 10
0.7118791474236382
 20
-0.6204185287157694
 10
0.7147164344787723
 20
-0.626914534303877
 10
0.7147715356614854
 20
-0.6270391477478875
 10
0.7148563067118326
 20
-0.6271468069818158
 10
0.7149105601840549
 20
-0.6272722681363297
 10
0.7161626285976833
 20
-0.6302002602153354
 10
0.717073917388916
 20
-0.6332935558425056
 10
0.7178071869744195
 20
-0.6364555160204569
 10
0.7179072168138418
 20
-0.6368844575352138
 10
0.7181055810716417
 20
-0.6372710135247972
 10
0.7181954383850223
 20
-0.6377033458815681
 10
0.7189405759175618
 20
-0.6413120494948493
 10
0.7193398475646973
 20
-0.6450479096836513
 10
0.7193398475646973
 20
-0.6488770180278354
 10
0.7193398475646973
 20
-0.6640645994080437
 10
0.7131837738884946
 20
-0.6778153114848666
 10
0.7032308048672146
 20
-0.6877682805061214
 10
0.6957658661736382
 20
-0.6952340669102138
 10
0.6861655447218279
 20
-0.7005619274245242
 10
0.6754242049323188
 20
-0.7027600407600403
 10
0.6718434757656521
 20
-0.7034924626350403
 10
0.6681364377339807
 20
-0.7038773232036166
 10
0.664339542388916
 20
-0.7038773232036166
 10
0.6604146427578396
 20
-0.7038773232036166
 10
0.6565999454922146
 20
-0.703433970610288
 10
0.6529081662496057
 20
-0.7026523815260993
 10
0.6523554590013418
 20
-0.7025328543451097
 10
0.651856157514784
 20
-0.7022921045621235
 10
0.6513093842400445
 20
-0.7021564708815681
 10
0.6481474240621057
 20
-0.7013842066129048
 10
0.6450676918029785
 20
-0.7004220551914638
 10
0.6421464814080132
 20
-0.6991292966736687
 10
0.6419362492031521
 20
-0.6990352008077833
 10
0.6417531437344021
 20
-0.6988995671272278
 10
0.6415437592400445
 20
-0.6988020804193158
 10
0.6349299218919668
 20
-0.6957757539219326
 10
0.6290688514709473
 20
-0.6914854910638597
 10
0.624176714155409
 20
-0.6862271428108215
 10
0.624176714155409
 20
-0.6862271428108215
 10
0.624176714155409
 20
-0.6862271428108215
 10
0.624176714155409
 20
-0.6862271428108215
 10
0.624176714155409
 20
-0.6862271428108215
 10
0.624176714155409
 20
-0.6862271428108215
 10
0.624176714155409
 20
-0.6862271428108215
 10
0.6150426334805085
 20
-0.6764081120491028
 10
0.6093392372131473
 20
-0.6633457409010993
 10
0.6093392372131473
 20
-0.6488770180278354
 10
0.6093392372131473
 20
-0.6185018552674187
 10
0.6339635319180085
 20
-0.5938775605625576
 10
0.664339542388916
 20
-0.5938775605625576
 97
        0
 92
        1
 93
        1
 72
     4
 94
        3
 73
     0
 74
     1
 95
       62
 96
       58
 40
0.0
 40
0.0
 40
0.0
 40
0.0
 40
1.0
 40
1.0
 40
1.0
 40
2.0
 40
2.0
 40
2.0
 40
3.0
 40
3.0
 40
3.0
 40
4.0
 40
4.0
 40
4.0
 40
5.0
 40
5.0
 40
5.0
 40
6.0
 40
6.0
 40
6.0
 40
7.0
 40
7.0
 40
7.0
 40
8.0
 40
8.0
 40
8.0
 40
9.0
 40
9.0
 40
9.0
 40
10.0
 40
10.0
 40
10.0
 40
11.0
 40
11.0
 40
11.0
 40
12.0
 40
12.0
 40
12.0
 40
13.0
 40
13.0
 40
13.0
 40
14.0
 40
14.0
 40
14.0
 40
15.0
 40
15.0
 40
15.0
 40
16.0
 40
16.0
 40
16.0
 40
17.0
 40
17.0
 40
17.0
 40
18.0
 40
18.0
 40
18.0
 40
19.0
 40
19.0
 40
19.0
 40
19.0
 10
0.7039089732699924
 20
-2.418584591812558
 10
0.7039089732699924
 20
-2.418584591812558
 10
0.7039081255594889
 20
-2.418585439523061
 10
0.7039081255594889
 20
-2.418585439523061
 10
0.7039081255594889
 20
-2.418585439523061
 10
0.7039081255594889
 20
-2.418585439523061
 10
0.7039081255594889
 20
-2.418585439523061
 10
0.694035689036064
 20
-2.428010284900665
 10
0.6807325681050618
 20
-2.4338781370057
 10
0.6660061412387424
 20
-2.4338781370057
 10
0.6356301307678223
 20
-2.4338781370057
 10
0.6110058360629611
 20
-2.409253842300839
 10
0.6110058360629611
 20
-2.378877831829918
 10
0.6110058360629611
 20
-2.360891958077748
 10
0.6197643809848361
 20
-2.345073680082957
 10
0.6331124305725223
 20
-2.335038483142853
 10
0.6331404050191243
 20
-2.335017290380266
 10
0.6331632932027307
 20
-2.334993554486168
 10
0.6331912676493326
 20
-2.334973209434085
 10
0.6360226207309299
 20
-2.332853085464901
 10
0.6390438609653049
 20
-2.331017792224884
 10
0.6422600746154785
 20
-2.329468177424537
 10
0.6425923771328396
 20
-2.329304569297367
 10
0.6428941620720757
 20
-2.329098575645023
 10
0.6432307031419668
 20
-2.32894174920188
 10
0.6461434364318973
 20
-2.327610843711429
 10
0.649205366770439
 20
-2.32660037279129
 10
0.6523630883958604
 20
-2.325789113839467
 10
0.6530268457200918
 20
-2.325614485475752
 10
0.6536397404140896
 20
-2.325333045588599
 10
0.6543136702643501
 20
-2.325183848539988
 10
0.6580893728468279
 20
-2.324364960193634
 10
0.6619854503207863
 20
-2.323877526654137
 10
0.6660061412387424
 20
-2.323877526654137
 10
0.6698030365837945
 20
-2.323877526654137
 10
0.6735100746154785
 20
-2.324262387222714
 10
0.6770908037821451
 20
-2.324994809097714
 10
0.6878321435716417
 20
-2.327192922433217
 10
0.6974324650234646
 20
-2.332521630658043
 10
0.704897403717041
 20
-2.33998656935162
 10
0.7148503727383083
 20
-2.349939538372887
 10
0.7210064464145363
 20
-2.363689402739207
 10
0.7210064464145363
 20
-2.378877831829918
 10
0.7210064464145363
 20
-2.382756955093808
 10
0.720583438873291
 20
-2.386533505386776
 10
0.7198196517096751
 20
-2.390186289946238
 10
0.7197086016337076
 20
-2.39070932732688
 10
0.7194763289557563
 20
-2.391179806656308
 10
0.7193508678012424
 20
-2.391697757773929
 10
0.718598100874159
 20
-2.394833438926273
 10
0.7176707055833604
 20
-2.397897064685822
 10
0.7164067692226833
 20
-2.400797930028703
 10
0.7163321706983777
 20
-2.400968319839901
 10
0.7162185774909251
 20
-2.401114973757002
 10
0.7161422835456001
 20
-2.4012853635682
 10
0.7132058143615723
 20
-2.407842404312558
 10
0.7090367741055085
 20
-2.413689063655005
 10
0.7039089732699924
 20
-2.418584591812558
 97
        0
 92
        1
 93
        1
 72
     4
 94
        3
 73
     0
 74
     1
 95
       77
 96
       73
 40
0.0
 40
0.0
 40
0.0
 40
0.0
 40
1.0
 40
1.0
 40
1.0
 40
2.0
 40
2.0
 40
2.0
 40
3.0
 40
3.0
 40
3.0
 40
4.0
 40
4.0
 40
4.0
 40
5.0
 40
5.0
 40
5.0
 40
6.0
 40
6.0
 40
6.0
 40
7.0
 40
7.0
 40
7.0
 40
8.0
 40
8.0
 40
8.0
 40
9.0
 40
9.0
 40
9.0
 40
10.0
 40
10.0
 40
10.0
 40
11.0
 40
11.0
 40
11.0
 40
12.0
 40
12.0
 40
12.0
 40
13.0
 40
13.0
 40
13.0
 40
14.0
 40
14.0
 40
14.0
 40
15.0
 40
15.0
 40
15.0
 40
16.0
 40
16.0
 40
16.0
 40
17.0
 40
17.0
 40
17.0
 40
18.0
 40
18.0
 40
18.0
 40
19.0
 40
19.0
 40
19.0
 40
20.0
 40
20.0
 40
20.0
 40
21.0
 40
21.0
 40
21.0
 40
22.0
 40
22.0
 40
22.0
 40
23.0
 40
23.0
 40
23.0
 40
24.0
 40
24.0
 40
24.0
 40
24.0
 10
2.392672909630669
 20
-2.4338781370057
 10
2.379895369211833
 20
-2.4338781370057
 10
2.368286821577284
 20
-2.42934203810162
 10
2.358949290381537
 20
-2.422033078140683
 10
2.358949290381537
 20
-2.422033078140683
 10
2.358949290381537
 20
-2.422033078140683
 10
2.358949290381537
 20
-2.422033078140683
 10
2.358949290381537
 20
-2.422033078140683
 10
2.358939117855496
 20
-2.422024601035648
 10
2.358939117855496
 20
-2.422024601035648
 10
2.355995019276937
 20
-2.4197179807557
 10
2.353328122033013
 20
-2.417136702272627
 10
2.350909603966607
 20
-2.414287547270457
 10
2.350450144873725
 20
-2.413751794232262
 10
2.350003401438395
 20
-2.41320925951004
 10
2.349564287397596
 20
-2.412656552261776
 10
2.348118940989176
 20
-2.410814477337731
 10
2.346788035498725
 20
-2.40891730123096
 10
2.345582591162787
 20
-2.406897207101186
 10
2.344628916846381
 20
-2.405324704117245
 10
2.343742211659749
 20
-2.403712358739641
 10
2.342947906917996
 20
-2.402041521337297
 10
2.34244860543145
 20
-2.400973406102922
 10
2.341967953575982
 20
-2.399912920263078
 10
2.341536468929715
 20
-2.398809201187558
 10
2.340498871273465
 20
-2.396200795968373
 10
2.339648617638482
 20
-2.393503381146325
 10
2.339023007286919
 20
-2.390713565879398
 10
2.338879744211833
 20
-2.390060828791724
 10
2.33878649605645
 20
-2.389398766888512
 10
2.338666121164958
 20
-2.388736704985301
 10
2.338072723812527
 20
-2.385533206992679
 10
2.337672604454888
 20
-2.382260196738773
 10
2.337672604454888
 20
-2.378877831829918
 10
2.337672604454888
 20
-2.348501821358998
 10
2.362296899159749
 20
-2.323877526654137
 10
2.392672909630669
 20
-2.323877526654137
 10
2.396021366119385
 20
-2.323877526654137
 10
2.399257077111138
 20
-2.324281884564293
 10
2.402430905236138
 20
-2.324860870838165
 10
2.403388818105062
 20
-2.32503295607037
 10
2.404321299658881
 20
-2.325240645143721
 10
2.405261410607232
 20
-2.325461897585127
 10
2.407612959543864
 20
-2.326023081938426
 10
2.409894148508708
 20
-2.326733463340335
 10
2.412114302317301
 20
-2.327589650948842
 10
2.413361284467909
 20
-2.328063521120283
 10
2.414576053619385
 20
-2.328561974896325
 10
2.415778107113308
 20
-2.329121463828617
 10
2.417765140533447
 20
-2.330061574776967
 10
2.419699615902371
 20
-2.331087304486168
 10
2.421546777089437
 20
-2.332252058717939
 10
2.423086219363742
 20
-2.333207428455353
 10
2.424526479509141
 20
-2.334264523453183
 10
2.42595911026001
 20
-2.335363156265683
 10
2.42661099963718
 20
-2.335870087146759
 10
2.427236609988742
 20
-2.336399906211429
 10
2.427864763471815
 20
-2.33693481153912
 10
2.433034102121989
 20
-2.341277632448408
 10
2.437337928348117
 20
-2.346499529149797
 10
2.440626197391086
 20
-2.352450456884172
 10
2.440626197391086
 20
-2.352450456884172
 10
2.44062704510159
 20
-2.352451304594676
 10
2.44062704510159
 20
-2.352452152305179
 10
2.44062704510159
 20
-2.352452152305179
 10
2.44062704510159
 20
-2.352452152305179
 10
2.44062704510159
 20
-2.352452152305179
 10
2.444978343115912
 20
-2.360326535171933
 10
2.447672367095947
 20
-2.369245297378964
 10
2.447672367095947
 20
-2.378877831829918
 10
2.447672367095947
 20
-2.409253842300839
 10
2.423048072391086
 20
-2.4338781370057
 10
2.392672909630669
 20
-2.4338781370057
 97
        0
 92
        1
 93
        1
 72
     4
 94
        3
 73
     0
 74
     1
 95
       71
 96
       67
 40
0.0
 40
0.0
 40
0.0
 40
0.0
 40
1.0
 40
1.0
 40
1.0
 40
2.0
 40
2.0
 40
2.0
 40
3.0
 40
3.0
 40
3.0
 40
4.0
 40
4.0
 40
4.0
 40
5.0
 40
5.0
 40
5.0
 40
6.0
 40
6.0
 40
6.0
 40
7.0
 40
7.0
 40
7.0
 40
8.0
 40
8.0
 40
8.0
 40
9.0
 40
9.0
 40
9.0
 40
10.0
 40
10.0
 40
10.0
 40
11.0
 40
11.0
 40
11.0
 40
12.0
 40
12.0
 40
12.0
 40
13.0
 40
13.0
 40
13.0
 40
14.0
 40
14.0
 40
14.0
 40
15.0
 40
15.0
 40
15.0
 40
16.0
 40
16.0
 40
16.0
 40
17.0
 40
17.0
 40
17.0
 40
18.0
 40
18.0
 40
18.0
 40
19.0
 40
19.0
 40
19.0
 40
20.0
 40
20.0
 40
20.0
 40
21.0
 40
21.0
 40
21.0
 40
22.0
 40
22.0
 40
22.0
 40
22.0
 10
2.464453644222683
 20
-2.267211470339033
 10
2.464453644222683
 20
-2.276018334759606
 10
2.463558461931016
 20
-2.28460564215978
 10
2.462225861019558
 20
-2.29305307732688
 10
2.443211714426676
 20
-2.277614573637644
 10
2.419016361236572
 20
-2.268321971098582
 10
2.392672909630669
 20
-2.268321971098582
 10
2.331712351904975
 20
-2.268321971098582
 10
2.282117048899333
 20
-2.317917274104224
 10
2.282117048899333
 20
-2.378877831829918
 10
2.282117048899333
 20
-2.398908383316464
 10
2.287554264068604
 20
-2.417658044232262
 10
2.296907054053412
 20
-2.4338781370057
 10
2.296907054053412
 20
-2.4338781370057
 10
0.7730490896437029
 20
-2.4338781370057
 10
0.7730490896437029
 20
-2.4338781370057
 10
0.7693581581115723
 20
-2.4338781370057
 10
0.7657435205247667
 20
-2.433560245566898
 10
0.7621102333068973
 20
-2.433321191204918
 10
0.7712629636128743
 20
-2.417229950428009
 10
0.7765620019700918
 20
-2.398676110638512
 10
0.7765620019700918
 20
-2.378877831829918
 10
0.7765620019700918
 20
-2.317917274104224
 10
0.7269666989644368
 20
-2.268321971098582
 10
0.6660061412387424
 20
-2.268321971098582
 10
0.644475142161064
 20
-2.268321971098582
 10
0.6244276364644368
 20
-2.274606049060822
 10
0.6074166297912723
 20
-2.285294830799103
 10
0.6067672835456001
 20
-2.279347293906742
 10
0.6063824229770363
 20
-2.273324310779572
 10
0.6063824229770363
 20
-2.267211470339033
 10
0.6063824229770363
 20
-2.267211470339033
 10
0.6063824229770363
 20
-0.7605433795187208
 10
0.6063824229770363
 20
-0.7605433795187208
 10
0.6063824229770363
 20
-0.754752669069502
 10
0.606690141889784
 20
-0.749029775460561
 10
0.607274214426689
 20
-0.7433865666389465
 10
0.6239588525560167
 20
-0.7534989052348666
 10
0.6434460216098361
 20
-0.7594328787591722
 10
0.664339542388916
 20
-0.7594328787591722
 10
0.7253001001146104
 20
-0.7594328787591722
 10
0.7748954031202527
 20
-0.7098375757535298
 10
0.7748954031202527
 20
-0.6488770180278354
 10
0.7748954031202527
 20
-0.6291134953498714
 10
0.7696167098151313
 20
-0.610587630007002
 10
0.7604936493767632
 20
-0.5945158865716722
 10
0.764653364817314
 20
-0.5942013859748714
 10
0.7688122325473361
 20
-0.5938767128520541
 10
0.7730490896437029
 20
-0.5938767128520541
 10
0.7730490896437029
 20
-0.5938767128520541
 10
2.296907054053412
 20
-0.5938767128520541
 10
2.296907054053412
 20
-0.5938767128520541
 10
2.287554264068604
 20
-0.6100968056254916
 10
2.282117048899333
 20
-0.6288464665412903
 10
2.282117048899333
 20
-0.6488770180278354
 10
2.282117048899333
 20
-0.7098375757535298
 10
2.331712351904975
 20
-0.7594328787591722
 10
2.392672909630669
 20
-0.7594328787591722
 10
2.419016361236572
 20
-0.7594328787591722
 10
2.443211714426676
 20
-0.7501402762201097
 10
2.462225861019558
 20
-0.7347017725308735
 10
2.463558461931016
 20
-0.7431492076979743
 10
2.464453644222683
 20
-0.7517365150981352
 10
2.464453644222683
 20
-0.7605433795187208
 10
2.464453644222683
 20
-0.7605433795187208
 10
2.464453644222683
 20
-2.267211470339033
 10
2.464453644222683
 20
-2.267211470339033
 97
        0
 75
     2
 76
     1
 98
        0
  0
ENDSEC
  0
SECTION
  2
OBJECTS
  0
DICTIONARY
  5
C
330
0
100
AcDbDictionary
281
     1
  3
ACAD_GROUP
350
D
  3
ACAD_LAYOUT
350
1A
  3
ACAD_MATERIAL
350
3B
  3
ACAD_MLEADERSTYLE
350
6F
  3
ACAD_MLINESTYLE
350
17
  3
ACAD_PLOTSETTINGS
350
19
  3
ACAD_PLOTSTYLENAME
350
E
  3
ACAD_TABLESTYLE
350
6E
  3
ACAD_VISUALSTYLE
350
2A
  0
DICTIONARY
  5
D
102
{ACAD_REACTORS
330
C
102
}
330
C
100
AcDbDictionary
281
     1
  0
DICTIONARY
  5
1A
102
{ACAD_REACTORS
330
C
102
}
330
C
100
AcDbDictionary
281
     1
  3
Layout1
350
1E
  3
Layout2
350
26
  3
Model
350
22
  0
DICTIONARY
  5
3B
102
{ACAD_REACTORS
330
C
102
}
330
C
100
AcDbDictionary
281
     1
  3
ByBlock
350
3D
  3
ByLayer
350
3C
  3
Global
350
3E
  0
DICTIONARY
  5
6F
102
{ACAD_REACTORS
330
C
102
}
330
C
100
AcDbDictionary
281
     1
  0
DICTIONARY
  5
17
102
{ACAD_REACTORS
330
C
102
}
330
C
100
AcDbDictionary
281
     1
  3
Standard
350
18
  0
DICTIONARY
  5
19
102
{ACAD_REACTORS
330
C
102
}
330
C
100
AcDbDictionary
281
     1
  0
ACDBDICTIONARYWDFLT
  5
E
102
{ACAD_REACTORS
330
C
102
}
330
C
100
AcDbDictionary
281
     1
  3
Normal
350
F
100
AcDbDictionaryWithDefault
340
F
  0
DICTIONARY
  5
6E
102
{ACAD_REACTORS
330
C
102
}
330
C
100
AcDbDictionary
281
     1
  0
DICTIONARY
  5
2A
102
{ACAD_REACTORS
330
C
102
}
330
C
100
AcDbDictionary
281
     1
  3
2dWireframe
350
2F
  3
3D Hidden
350
31
  3
3dWireframe
350
30
  3
Basic
350
32
  3
Brighten
350
36
  3
ColorChange
350
3A
  3
Conceptual
350
34
  3
Dim
350
35
  3
Facepattern
350
39
  3
Flat
350
2B
  3
FlatWithEdges
350
2C
  3
Gouraud
350
2D
  3
GouraudWithEdges
350
2E
  3
Linepattern
350
38
  3
Realistic
350
33
  3
Thicken
350
37
  0
LAYOUT
  5
1E
102
{ACAD_REACTORS
330
1A
102
}
330
1A
100
AcDbPlotSettings
  1

  2
none_device
  4

  6

 40
0.0
 41
0.0
 42
0.0
 43
0.0
 44
0.0
 45
0.0
 46
0.0
 47
0.0
 48
0.0
 49
0.0
140
0.0
141
0.0
142
1.0
143
1.0
 70
   688
 72
     0
 73
     0
 74
     5
  7

 75
    16
 76
     0
 77
     2
 78
   300
147
1.0
148
0.0
149
0.0
100
AcDbLayout
  1
Layout1
 70
     1
 71
     1
 10
0.0
 20
0.0
 11
12.0
 21
9.0
 12
0.0
 22
0.0
 32
0.0
 14
1.000000000000000E+20
 24
1.000000000000000E+20
 34
1.000000000000000E+20
 15
-1.000000000000000E+20
 25
-1.000000000000000E+20
 35
-1.000000000000000E+20
146
0.0
 13
0.0
 23
0.0
 33
0.0
 16
1.0
 26
0.0
 36
0.0
 17
0.0
 27
1.0
 37
0.0
 76
     0
330
1B
  0
LAYOUT
  5
26
102
{ACAD_REACTORS
330
1A
102
}
330
1A
100
AcDbPlotSettings
  1

  2
none_device
  4

  6

 40
0.0
 41
0.0
 42
0.0
 43
0.0
 44
0.0
 45
0.0
 46
0.0
 47
0.0
 48
0.0
 49
0.0
140
0.0
141
0.0
142
1.0
143
1.0
 70
   688
 72
     0
 73
     0
 74
     5
  7

 75
    16
 76
     0
 77
     2
 78
   300
147
1.0
148
0.0
149
0.0
100
AcDbLayout
  1
Layout2
 70
     1
 71
     2
 10
0.0
 20
0.0
 11
0.0
 21
0.0
 12
0.0
 22
0.0
 32
0.0
 14
0.0
 24
0.0
 34
0.0
 15
0.0
 25
0.0
 35
0.0
146
0.0
 13
0.0
 23
0.0
 33
0.0
 16
1.0
 26
0.0
 36
0.0
 17
0.0
 27
1.0
 37
0.0
 76
     0
330
23
  0
LAYOUT
  5
22
102
{ACAD_REACTORS
330
1A
102
}
330
1A
100
AcDbPlotSettings
  1

  2
none_device
  4

  6

 40
0.0
 41
0.0
 42
0.0
 43
0.0
 44
0.0
 45
0.0
 46
0.0
 47
0.0
 48
0.0
 49
0.0
140
0.0
141
0.0
142
1.0
143
1.0
 70
  1712
 72
     0
 73
     0
 74
     0
  7

 75
     0
 76
     0
 77
     2
 78
   300
147
1.0
148
0.0
149
0.0
100
AcDbLayout
  1
Model
 70
     1
 71
     0
 10
0.0
 20
0.0
 11
12.0
 21
9.0
 12
0.0
 22
0.0
 32
0.0
 14
1.000000000000000E+20
 24
1.000000000000000E+20
 34
1.000000000000000E+20
 15
-1.000000000000000E+20
 25
-1.000000000000000E+20
 35
-1.000000000000000E+20
146
0.0
 13
0.0
 23
0.0
 33
0.0
 16
1.0
 26
0.0
 36
0.0
 17
0.0
 27
1.0
 37
0.0
 76
     0
330
1F
331
29
  0
MATERIAL
  5
3D
102
{ACAD_REACTORS
330
3B
102
}
102
{ACAD_XDICTIONARY
360
6A
102
}
330
3B
100
AcDbMaterial
  1
ByBlock
  0
MATERIAL
  5
3C
102
{ACAD_REACTORS
330
3B
102
}
102
{ACAD_XDICTIONARY
360
68
102
}
330
3B
100
AcDbMaterial
  1
ByLayer
  0
MATERIAL
  5
3E
102
{ACAD_REACTORS
330
3B
102
}
102
{ACAD_XDICTIONARY
360
6C
102
}
330
3B
100
AcDbMaterial
  1
Global
  0
MLINESTYLE
  5
18
102
{ACAD_REACTORS
330
17
102
}
330
17
100
AcDbMlineStyle
  2
Standard
 70
     0
  3

 62
   256
 51
90.0
 52
90.0
 71
     2
 49
0.5
 62
   256
  6
BYLAYER
 49
-0.5
 62
   256
  6
BYLAYER
  0
ACDBPLACEHOLDER
  5
F
102
{ACAD_REACTORS
330
E
102
}
330
E
  0
VISUALSTYLE
  5
2F
102
{ACAD_REACTORS
330
2A
102
}
102
{ACAD_XDICTIONARY
360
50
102
}
330
2A
100
AcDbVisualStyle
  2
2dWireframe
 70
     4
 71
     0
 72
     2
 73
     0
 90
        0
 40
-0.6
 41
-30.0
 62
     5
 63
     7
421
 16777215
 74
     1
 91
        4
 64
     7
 65
   257
 75
     1
175
     1
 42
1.0
 92
        0
 66
   257
 43
1.0
 76
     1
 77
     6
 78
     2
 67
     7
 79
     5
170
     0
171
     0
290
     0
174
     0
 93
        1
 44
0.0
173
     0
291
     0
 45
0.0
1001
ACAD
1000
AcDbSavedByObjectVersion
1070
     0
  0
VISUALSTYLE
  5
31
102
{ACAD_REACTORS
330
2A
102
}
102
{ACAD_XDICTIONARY
360
54
102
}
330
2A
100
AcDbVisualStyle
  2
3D Hidden
 70
     6
 71
     1
 72
     2
 73
     2
 90
        0
 40
-0.6
 41
-30.0
 62
     5
 63
     7
421
 16777215
 74
     2
 91
        2
 64
     7
 65
   257
 75
     2
175
     1
 42
40.0
 92
        0
 66
   257
 43
1.0
 76
     1
 77
     6
 78
     2
 67
     7
 79
     3
170
     0
171
     0
290
     0
174
     0
 93
        1
 44
0.0
173
     0
291
     0
 45
0.0
1001
ACAD
1000
AcDbSavedByObjectVersion
1070
     0
  0
VISUALSTYLE
  5
30
102
{ACAD_REACTORS
330
2A
102
}
102
{ACAD_XDICTIONARY
360
52
102
}
330
2A
100
AcDbVisualStyle
  2
3dWireframe
 70
     5
 71
     0
 72
     2
 73
     0
 90
        0
 40
-0.6
 41
-30.0
 62
     5
 63
     7
421
 16777215
 74
     1
 91
        4
 64
     7
 65
   257
 75
     1
175
     1
 42
1.0
 92
        0
 66
   257
 43
1.0
 76
     1
 77
     6
 78
     2
 67
     7
 79
     5
170
     0
171
     0
290
     0
174
     0
 93
        1
 44
0.0
173
     0
291
     0
 45
0.0
1001
ACAD
1000
AcDbSavedByObjectVersion
1070
     0
  0
VISUALSTYLE
  5
32
102
{ACAD_REACTORS
330
2A
102
}
102
{ACAD_XDICTIONARY
360
56
102
}
330
2A
100
AcDbVisualStyle
  2
Basic
 70
     7
 71
     1
 72
     0
 73
     1
 90
        0
 40
-0.6
 41
-30.0
 62
     5
 63
     7
421
 16777215
 74
     0
 91
        4
 64
     7
 65
   257
 75
     1
175
     1
 42
1.0
 92
        8
 66
     7
 43
1.0
 76
     1
 77
     6
 78
     2
 67
     7
 79
     5
170
     0
171
     0
290
     0
174
     0
 93
        1
 44
0.0
173
     0
291
     1
 45
0.0
1001
ACAD
1000
AcDbSavedByObjectVersion
1070
     0
  0
VISUALSTYLE
  5
36
102
{ACAD_REACTORS
330
2A
102
}
102
{ACAD_XDICTIONARY
360
5E
102
}
330
2A
100
AcDbVisualStyle
  2
Brighten
 70
    12
 71
     2
 72
     2
 73
     0
 90
        0
 40
-0.6
 41
-30.0
 62
     5
 63
     7
421
 16777215
 74
     1
 91
        4
 64
     7
 65
   257
 75
     1
175
     1
 42
1.0
 92
        8
 66
     7
 43
1.0
 76
     1
 77
     6
 78
     2
 67
     7
 79
     5
170
     0
171
     0
290
     0
174
     0
 93
        1
 44
50.0
173
     0
291
     1
 45
0.0
1001
ACAD
1000
AcDbSavedByObjectVersion
1070
     0
  0
VISUALSTYLE
  5
3A
102
{ACAD_REACTORS
330
2A
102
}
102
{ACAD_XDICTIONARY
360
66
102
}
330
2A
100
AcDbVisualStyle
  2
ColorChange
 70
    16
 71
     2
 72
     2
 73
     3
 90
        0
 40
-0.6
 41
-30.0
 62
     5
 63
     8
421
  8421504
 74
     1
 91
        4
 64
     7
 65
   257
 75
     1
175
     1
 42
1.0
 92
        8
 66
     8
424
  8421504
 43
1.0
 76
     1
 77
     6
 78
     2
 67
     7
 79
     5
170
     0
171
     0
290
     0
174
     0
 93
        1
 44
0.0
173
     0
291
     1
 45
0.0
1001
ACAD
1000
AcDbSavedByObjectVersion
1070
     0
  0
VISUALSTYLE
  5
34
102
{ACAD_REACTORS
330
2A
102
}
102
{ACAD_XDICTIONARY
360
5A
102
}
330
2A
100
AcDbVisualStyle
  2
Conceptual
 70
     9
 71
     3
 72
     2
 73
     0
 90
        0
 40
-0.6
 41
-30.0
 62
     5
 63
     7
421
 16777215
 74
     2
 91
        2
 64
     7
 65
   257
 75
     1
175
     1
 42
40.0
 92
        8
 66
     7
 43
1.0
 76
     1
 77
     6
 78
     2
 67
     7
 79
     3
170
     0
171
     0
290
     0
174
     0
 93
        1
 44
0.0
173
     0
291
     0
 45
0.0
1001
ACAD
1000
AcDbSavedByObjectVersion
1070
     0
  0
VISUALSTYLE
  5
35
102
{ACAD_REACTORS
330
2A
102
}
102
{ACAD_XDICTIONARY
360
5C
102
}
330
2A
100
AcDbVisualStyle
  2
Dim
 70
    11
 71
     2
 72
     2
 73
     0
 90
        0
 40
-0.6
 41
-30.0
 62
     5
 63
     7
421
 16777215
 74
     1
 91
        4
 64
     7
 65
   257
 75
     1
175
     1
 42
1.0
 92
        8
 66
     7
 43
1.0
 76
     1
 77
     6
 78
     2
 67
     7
 79
     5
170
     0
171
     0
290
     0
174
     0
 93
        1
 44
-50.0
173
     0
291
     1
 45
0.0
1001
ACAD
1000
AcDbSavedByObjectVersion
1070
     0
  0
VISUALSTYLE
  5
39
102
{ACAD_REACTORS
330
2A
102
}
102
{ACAD_XDICTIONARY
360
64
102
}
330
2A
100
AcDbVisualStyle
  2
Facepattern
 70
    15
 71
     2
 72
     2
 73
     0
 90
        0
 40
-0.6
 41
-30.0
 62
     5
 63
     7
421
 16777215
 74
     1
 91
        4
 64
     7
 65
   257
 75
     1
175
     1
 42
1.0
 92
        8
 66
     7
 43
1.0
 76
     1
 77
     6
 78
     2
 67
     7
 79
     5
170
     0
171
     0
290
     0
174
     0
 93
        1
 44
0.0
173
     0
291
     1
 45
0.0
1001
ACAD
1000
AcDbSavedByObjectVersion
1070
     0
  0
VISUALSTYLE
  5
2B
102
{ACAD_REACTORS
330
2A
102
}
102
{ACAD_XDICTIONARY
360
48
102
}
330
2A
100
AcDbVisualStyle
  2
Flat
 70
     0
 71
     2
 72
     1
 73
     1
 90
        2
 40
-0.6
 41
30.0
 62
     5
 63
     7
421
 16777215
 74
     0
 91
        4
 64
     7
 65
   257
 75
     1
175
     1
 42
1.0
 92
        8
 66
     7
 43
1.0
 76
     1
 77
     6
 78
     2
 67
     7
 79
     5
170
     0
171
     0
290
     0
174
     0
 93
       13
 44
0.0
173
     0
291
     1
 45
0.0
1001
ACAD
1000
AcDbSavedByObjectVersion
1070
     0
  0
VISUALSTYLE
  5
2C
102
{ACAD_REACTORS
330
2A
102
}
102
{ACAD_XDICTIONARY
360
4A
102
}
330
2A
100
AcDbVisualStyle
  2
FlatWithEdges
 70
     1
 71
     2
 72
     1
 73
     1
 90
        2
 40
-0.6
 41
30.0
 62
     5
 63
     7
421
 16777215
 74
     1
 91
        4
 64
     7
 65
   257
 75
     1
175
     1
 42
1.0
 92
        0
 66
   257
 43
1.0
 76
     1
 77
     6
 78
     2
 67
     7
 79
     5
170
     0
171
     0
290
     0
174
     0
 93
       13
 44
0.0
173
     0
291
     1
 45
0.0
1001
ACAD
1000
AcDbSavedByObjectVersion
1070
     0
  0
VISUALSTYLE
  5
2D
102
{ACAD_REACTORS
330
2A
102
}
102
{ACAD_XDICTIONARY
360
4C
102
}
330
2A
100
AcDbVisualStyle
  2
Gouraud
 70
     2
 71
     2
 72
     2
 73
     1
 90
        2
 40
-0.6
 41
30.0
 62
     5
 63
     7
421
 16777215
 74
     0
 91
        4
 64
     7
 65
   257
 75
     1
175
     1
 42
1.0
 92
        0
 66
     7
 43
1.0
 76
     1
 77
     6
 78
     2
 67
     7
 79
     5
170
     0
171
     0
290
     0
174
     0
 93
       13
 44
0.0
173
     0
291
     1
 45
0.0
1001
ACAD
1000
AcDbSavedByObjectVersion
1070
     0
  0
VISUALSTYLE
  5
2E
102
{ACAD_REACTORS
330
2A
102
}
102
{ACAD_XDICTIONARY
360
4E
102
}
330
2A
100
AcDbVisualStyle
  2
GouraudWithEdges
 70
     3
 71
     2
 72
     2
 73
     1
 90
        2
 40
-0.6
 41
30.0
 62
     5
 63
     7
421
 16777215
 74
     1
 91
        4
 64
     7
 65
   257
 75
     1
175
     1
 42
1.0
 92
        0
 66
   257
 43
1.0
 76
     1
 77
     6
 78
     2
 67
     7
 79
     5
170
     0
171
     0
290
     0
174
     0
 93
       13
 44
0.0
173
     0
291
     1
 45
0.0
1001
ACAD
1000
AcDbSavedByObjectVersion
1070
     0
  0
VISUALSTYLE
  5
38
102
{ACAD_REACTORS
330
2A
102
}
102
{ACAD_XDICTIONARY
360
62
102
}
330
2A
100
AcDbVisualStyle
  2
Linepattern
 70
    14
 71
     2
 72
     2
 73
     0
 90
        0
 40
-0.6
 41
-30.0
 62
     5
 63
     7
421
 16777215
 74
     1
 91
        4
 64
     7
 65
   257
 75
     7
175
     7
 42
1.0
 92
        8
 66
     7
 43
1.0
 76
     1
 77
     6
 78
     2
 67
     7
 79
     5
170
     0
171
     0
290
     0
174
     0
 93
        1
 44
0.0
173
     0
291
     1
 45
0.0
1001
ACAD
1000
AcDbSavedByObjectVersion
1070
     0
  0
VISUALSTYLE
  5
33
102
{ACAD_REACTORS
330
2A
102
}
102
{ACAD_XDICTIONARY
360
58
102
}
330
2A
100
AcDbVisualStyle
  2
Realistic
 70
     8
 71
     2
 72
     2
 73
     0
 90
        0
 40
-0.6
 41
-30.0
 62
     5
 63
     7
421
 16777215
 74
     1
 91
        0
 64
     7
 65
   257
 75
     1
175
     1
 42
1.0
 92
        8
 66
     8
424
  7895160
 43
1.0
 76
     1
 77
     6
 78
     2
 67
     7
 79
     5
170
     0
171
     0
290
     0
174
     0
 93
       13
 44
0.0
173
     0
291
     0
 45
0.0
1001
ACAD
1000
AcDbSavedByObjectVersion
1070
     0
  0
VISUALSTYLE
  5
37
102
{ACAD_REACTORS
330
2A
102
}
102
{ACAD_XDICTIONARY
360
60
102
}
330
2A
100
AcDbVisualStyle
  2
Thicken
 70
    13
 71
     2
 72
     2
 73
     0
 90
        0
 40
-0.6
 41
-30.0
 62
     5
 63
     7
421
 16777215
 74
     1
 91
        4
 64
     7
 65
   257
 75
     1
175
     1
 42
1.0
 92
       12
 66
     7
 43
1.0
 76
     1
 77
     6
 78
     2
 67
     7
 79
     5
170
     0
171
     0
290
     0
174
     0
 93
        1
 44
0.0
173
     0
291
     1
 45
0.0
1001
ACAD
1000
AcDbSavedByObjectVersion
1070
     0
  0
DICTIONARY
  5
6A
330
3D
100
AcDbDictionary
280
     1
281
     1
  3
ACAD_XREC_ROUNDTRIP
360
6B
  0
DICTIONARY
  5
68
330
3C
100
AcDbDictionary
280
     1
281
     1
  3
ACAD_XREC_ROUNDTRIP
360
69
  0
DICTIONARY
  5
6C
330
3E
100
AcDbDictionary
280
     1
281
     1
  3
ACAD_XREC_ROUNDTRIP
360
6D
  0
DICTIONARY
  5
50
330
2F
100
AcDbDictionary
280
     1
281
     1
  3
ACAD_XREC_ROUNDTRIP
360
51
  0
DICTIONARY
  5
54
330
31
100
AcDbDictionary
280
     1
281
     1
  3
ACAD_XREC_ROUNDTRIP
360
55
  0
DICTIONARY
  5
52
330
30
100
AcDbDictionary
280
     1
281
     1
  3
ACAD_XREC_ROUNDTRIP
360
53
  0
DICTIONARY
  5
56
330
32
100
AcDbDictionary
280
     1
281
     1
  3
ACAD_XREC_ROUNDTRIP
360
57
  0
DICTIONARY
  5
5E
330
36
100
AcDbDictionary
280
     1
281
     1
  3
ACAD_XREC_ROUNDTRIP
360
5F
  0
DICTIONARY
  5
66
330
3A
100
AcDbDictionary
280
     1
281
     1
  3
ACAD_XREC_ROUNDTRIP
360
67
  0
DICTIONARY
  5
5A
330
34
100
AcDbDictionary
280
     1
281
     1
  3
ACAD_XREC_ROUNDTRIP
360
5B
  0
DICTIONARY
  5
5C
330
35
100
AcDbDictionary
280
     1
281
     1
  3
ACAD_XREC_ROUNDTRIP
360
5D
  0
DICTIONARY
  5
64
330
39
100
AcDbDictionary
280
     1
281
     1
  3
ACAD_XREC_ROUNDTRIP
360
65
  0
DICTIONARY
  5
48
330
2B
100
AcDbDictionary
280
     1
281
     1
  3
ACAD_XREC_ROUNDTRIP
360
49
  0
DICTIONARY
  5
4A
330
2C
100
AcDbDictionary
280
     1
281
     1
  3
ACAD_XREC_ROUNDTRIP
360
4B
  0
DICTIONARY
  5
4C
330
2D
100
AcDbDictionary
280
     1
281
     1
  3
ACAD_XREC_ROUNDTRIP
360
4D
  0
DICTIONARY
  5
4E
330
2E
100
AcDbDictionary
280
     1
281
     1
  3
ACAD_XREC_ROUNDTRIP
360
4F
  0
DICTIONARY
  5
62
330
38
100
AcDbDictionary
280
     1
281
     1
  3
ACAD_XREC_ROUNDTRIP
360
63
  0
DICTIONARY
  5
58
330
33
100
AcDbDictionary
280
     1
281
     1
  3
ACAD_XREC_ROUNDTRIP
360
59
  0
DICTIONARY
  5
60
330
37
100
AcDbDictionary
280
     1
281
     1
  3
ACAD_XREC_ROUNDTRIP
360
61
  0
XRECORD
  5
6B
102
{ACAD_REACTORS
330
6A
102
}
330
6A
100
AcDbXrecord
280
     1
102
MATERIAL
148
0.0
149
0.0
149
0.0
 93
        0
 94
      127
282
     0
 72
     1
 77
     1
171
     1
175
     1
179
     1
273
     0
  0
XRECORD
  5
69
102
{ACAD_REACTORS
330
68
102
}
330
68
100
AcDbXrecord
280
     1
102
MATERIAL
148
0.0
149
0.0
149
0.0
 93
        0
 94
      127
282
     0
 72
     1
 77
     1
171
     1
175
     1
179
     1
273
     0
  0
XRECORD
  5
6D
102
{ACAD_REACTORS
330
6C
102
}
330
6C
100
AcDbXrecord
280
     1
102
MATERIAL
148
0.0
149
0.0
149
0.0
 93
        0
 94
      127
282
     0
 72
     1
 77
     1
171
     1
175
     1
179
     1
273
     0
  0
XRECORD
  5
51
102
{ACAD_REACTORS
330
50
102
}
330
50
100
AcDbXrecord
280
     1
102
RTVSPropertyOp0
 70
     1
102
RTVSPropertyOp1
 70
     1
102
RTVSPropertyOp2
 70
     1
102
RTVSPropertyOp3
 70
     1
102
RTVSPropertyOp4
 70
     1
102
RTVSPropertyOp5
 70
     1
102
RTVSPropertyOp6
 70
     1
102
RTVSPropertyOp7
 70
     1
102
RTVSPropertyOp8
 70
     1
102
RTVSPropertyOp9
 70
     1
102
RTVSPropertyOp10
 70
     1
102
RTVSPropertyOp11
 70
     1
102
RTVSPropertyOp12
 70
     1
102
RTVSPropertyOp13
 70
     1
102
RTVSPropertyOp14
 70
     1
102
RTVSPropertyOp15
 70
     1
102
RTVSPropertyOp16
 70
     1
102
RTVSPropertyOp17
 70
     1
102
RTVSPropertyOp18
 70
     1
102
RTVSPropertyOp19
 70
     1
102
RTVSPropertyOp20
 70
     1
102
RTVSPropertyOp21
 70
     1
102
RTVSPropertyOp22
 70
     1
102
RTVSPropertyOp23
 70
     1
102
RTVSPropertyOp24
 70
     1
102
RTVSPropertyOp25
 70
     1
102
RTVSPropertyOp26
 70
     1
102
RTVSPropertyOp27
 70
     1
102
RTVSPropertyOp28
 70
     1
102
RTVSPropertyOp29
 70
     1
102
RTVSPropertyOp30
 70
     1
102
RTVSPropertyOp31
 70
     1
102
RTVSPropertyOp32
 70
     1
  0
XRECORD
  5
55
102
{ACAD_REACTORS
330
54
102
}
330
54
100
AcDbXrecord
280
     1
102
RTVSPropertyOp0
 70
     1
102
RTVSPropertyOp1
 70
     1
102
RTVSPropertyOp2
 70
     1
102
RTVSPropertyOp3
 70
     1
102
RTVSPropertyOp4
 70
     1
102
RTVSPropertyOp5
 70
     1
102
RTVSPropertyOp6
 70
     1
102
RTVSPropertyOp7
 70
     1
102
RTVSPropertyOp8
 70
     1
102
RTVSPropertyOp9
 70
     1
102
RTVSPropertyOp10
 70
     1
102
RTVSPropertyOp11
 70
     1
102
RTVSPropertyOp12
 70
     1
102
RTVSPropertyOp13
 70
     1
102
RTVSPropertyOp14
 70
     1
102
RTVSPropertyOp15
 70
     1
102
RTVSPropertyOp16
 70
     1
102
RTVSPropertyOp17
 70
     1
102
RTVSPropertyOp18
 70
     1
102
RTVSPropertyOp19
 70
     1
102
RTVSPropertyOp20
 70
     1
102
RTVSPropertyOp21
 70
     1
102
RTVSPropertyOp22
 70
     1
102
RTVSPropertyOp23
 70
     1
102
RTVSPropertyOp24
 70
     1
102
RTVSPropertyOp25
 70
     1
102
RTVSPropertyOp26
 70
     1
102
RTVSPropertyOp27
 70
     1
102
RTVSPropertyOp28
 70
     1
102
RTVSPropertyOp29
 70
     1
102
RTVSPropertyOp30
 70
     1
102
RTVSPropertyOp31
 70
     1
102
RTVSPropertyOp32
 70
     1
  0
XRECORD
  5
53
102
{ACAD_REACTORS
330
52
102
}
330
52
100
AcDbXrecord
280
     1
102
RTVSPropertyOp0
 70
     1
102
RTVSPropertyOp1
 70
     1
102
RTVSPropertyOp2
 70
     1
102
RTVSPropertyOp3
 70
     1
102
RTVSPropertyOp4
 70
     1
102
RTVSPropertyOp5
 70
     1
102
RTVSPropertyOp6
 70
     1
102
RTVSPropertyOp7
 70
     1
102
RTVSPropertyOp8
 70
     1
102
RTVSPropertyOp9
 70
     1
102
RTVSPropertyOp10
 70
     1
102
RTVSPropertyOp11
 70
     1
102
RTVSPropertyOp12
 70
     1
102
RTVSPropertyOp13
 70
     1
102
RTVSPropertyOp14
 70
     1
102
RTVSPropertyOp15
 70
     1
102
RTVSPropertyOp16
 70
     1
102
RTVSPropertyOp17
 70
     1
102
RTVSPropertyOp18
 70
     1
102
RTVSPropertyOp19
 70
     1
102
RTVSPropertyOp20
 70
     1
102
RTVSPropertyOp21
 70
     1
102
RTVSPropertyOp22
 70
     1
102
RTVSPropertyOp23
 70
     1
102
RTVSPropertyOp24
 70
     1
102
RTVSPropertyOp25
 70
     1
102
RTVSPropertyOp26
 70
     1
102
RTVSPropertyOp27
 70
     1
102
RTVSPropertyOp28
 70
     1
102
RTVSPropertyOp29
 70
     1
102
RTVSPropertyOp30
 70
     1
102
RTVSPropertyOp31
 70
     1
102
RTVSPropertyOp32
 70
     1
  0
XRECORD
  5
57
102
{ACAD_REACTORS
330
56
102
}
330
56
100
AcDbXrecord
280
     1
102
RTVSPropertyOp0
 70
     1
102
RTVSPropertyOp1
 70
     1
102
RTVSPropertyOp2
 70
     1
102
RTVSPropertyOp3
 70
     1
102
RTVSPropertyOp4
 70
     1
102
RTVSPropertyOp5
 70
     1
102
RTVSPropertyOp6
 70
     1
102
RTVSPropertyOp7
 70
     1
102
RTVSPropertyOp8
 70
     1
102
RTVSPropertyOp9
 70
     1
102
RTVSPropertyOp10
 70
     1
102
RTVSPropertyOp11
 70
     1
102
RTVSPropertyOp12
 70
     1
102
RTVSPropertyOp13
 70
     1
102
RTVSPropertyOp14
 70
     1
102
RTVSPropertyOp15
 70
     1
102
RTVSPropertyOp16
 70
     1
102
RTVSPropertyOp17
 70
     1
102
RTVSPropertyOp18
 70
     1
102
RTVSPropertyOp19
 70
     1
102
RTVSPropertyOp20
 70
     1
102
RTVSPropertyOp21
 70
     1
102
RTVSPropertyOp22
 70
     1
102
RTVSPropertyOp23
 70
     1
102
RTVSPropertyOp24
 70
     1
102
RTVSPropertyOp25
 70
     1
102
RTVSPropertyOp26
 70
     1
102
RTVSPropertyOp27
 70
     1
102
RTVSPropertyOp28
 70
     1
102
RTVSPropertyOp29
 70
     1
102
RTVSPropertyOp30
 70
     1
102
RTVSPropertyOp31
 70
     1
102
RTVSPropertyOp32
 70
     1
  0
XRECORD
  5
5F
102
{ACAD_REACTORS
330
5E
102
}
330
5E
100
AcDbXrecord
280
     1
102
RTVSPropertyOp0
 70
     1
102
RTVSPropertyOp1
 70
     1
102
RTVSPropertyOp2
 70
     1
102
RTVSPropertyOp3
 70
     1
102
RTVSPropertyOp4
 70
     1
102
RTVSPropertyOp5
 70
     1
102
RTVSPropertyOp6
 70
     1
102
RTVSPropertyOp7
 70
     1
102
RTVSPropertyOp8
 70
     1
102
RTVSPropertyOp9
 70
     1
102
RTVSPropertyOp10
 70
     1
102
RTVSPropertyOp11
 70
     1
102
RTVSPropertyOp12
 70
     1
102
RTVSPropertyOp13
 70
     1
102
RTVSPropertyOp14
 70
     1
102
RTVSPropertyOp15
 70
     1
102
RTVSPropertyOp16
 70
     1
102
RTVSPropertyOp17
 70
     1
102
RTVSPropertyOp18
 70
     1
102
RTVSPropertyOp19
 70
     1
102
RTVSPropertyOp20
 70
     1
102
RTVSPropertyOp21
 70
     1
102
RTVSPropertyOp22
 70
     1
102
RTVSPropertyOp23
 70
     1
102
RTVSPropertyOp24
 70
     1
102
RTVSPropertyOp25
 70
     1
102
RTVSPropertyOp26
 70
     1
102
RTVSPropertyOp27
 70
     1
102
RTVSPropertyOp28
 70
     1
102
RTVSPropertyOp29
 70
     1
102
RTVSPropertyOp30
 70
     1
102
RTVSPropertyOp31
 70
     1
102
RTVSPropertyOp32
 70
     1
  0
XRECORD
  5
67
102
{ACAD_REACTORS
330
66
102
}
330
66
100
AcDbXrecord
280
     1
102
RTVSPropertyOp0
 70
     1
102
RTVSPropertyOp1
 70
     1
102
RTVSPropertyOp2
 70
     1
102
RTVSPropertyOp3
 70
     1
102
RTVSPropertyOp4
 70
     1
102
RTVSPropertyOp5
 70
     1
102
RTVSPropertyOp6
 70
     1
102
RTVSPropertyOp7
 70
     1
102
RTVSPropertyOp8
 70
     1
102
RTVSPropertyOp9
 70
     1
102
RTVSPropertyOp10
 70
     1
102
RTVSPropertyOp11
 70
     1
102
RTVSPropertyOp12
 70
     1
102
RTVSPropertyOp13
 70
     1
102
RTVSPropertyOp14
 70
     1
102
RTVSPropertyOp15
 70
     1
102
RTVSPropertyOp16
 70
     1
102
RTVSPropertyOp17
 70
     1
102
RTVSPropertyOp18
 70
     1
102
RTVSPropertyOp19
 70
     1
102
RTVSPropertyOp20
 70
     1
102
RTVSPropertyOp21
 70
     1
102
RTVSPropertyOp22
 70
     1
102
RTVSPropertyOp23
 70
     1
102
RTVSPropertyOp24
 70
     1
102
RTVSPropertyOp25
 70
     1
102
RTVSPropertyOp26
 70
     1
102
RTVSPropertyOp27
 70
     1
102
RTVSPropertyOp28
 70
     1
102
RTVSPropertyOp29
 70
     1
102
RTVSPropertyOp30
 70
     1
102
RTVSPropertyOp31
 70
     1
102
RTVSPropertyOp32
 70
     1
  0
XRECORD
  5
5B
102
{ACAD_REACTORS
330
5A
102
}
330
5A
100
AcDbXrecord
280
     1
102
RTVSPropertyOp0
 70
     1
102
RTVSPropertyOp1
 70
     1
102
RTVSPropertyOp2
 70
     1
102
RTVSPropertyOp3
 70
     1
102
RTVSPropertyOp4
 70
     1
102
RTVSPropertyOp5
 70
     1
102
RTVSPropertyOp6
 70
     1
102
RTVSPropertyOp7
 70
     1
102
RTVSPropertyOp8
 70
     1
102
RTVSPropertyOp9
 70
     1
102
RTVSPropertyOp10
 70
     1
102
RTVSPropertyOp11
 70
     1
102
RTVSPropertyOp12
 70
     1
102
RTVSPropertyOp13
 70
     1
102
RTVSPropertyOp14
 70
     1
102
RTVSPropertyOp15
 70
     1
102
RTVSPropertyOp16
 70
     1
102
RTVSPropertyOp17
 70
     1
102
RTVSPropertyOp18
 70
     1
102
RTVSPropertyOp19
 70
     1
102
RTVSPropertyOp20
 70
     1
102
RTVSPropertyOp21
 70
     1
102
RTVSPropertyOp22
 70
     1
102
RTVSPropertyOp23
 70
     1
102
RTVSPropertyOp24
 70
     1
102
RTVSPropertyOp25
 70
     1
102
RTVSPropertyOp26
 70
     1
102
RTVSPropertyOp27
 70
     1
102
RTVSPropertyOp28
 70
     1
102
RTVSPropertyOp29
 70
     1
102
RTVSPropertyOp30
 70
     1
102
RTVSPropertyOp31
 70
     1
102
RTVSPropertyOp32
 70
     1
  0
XRECORD
  5
5D
102
{ACAD_REACTORS
330
5C
102
}
330
5C
100
AcDbXrecord
280
     1
102
RTVSPropertyOp0
 70
     1
102
RTVSPropertyOp1
 70
     1
102
RTVSPropertyOp2
 70
     1
102
RTVSPropertyOp3
 70
     1
102
RTVSPropertyOp4
 70
     1
102
RTVSPropertyOp5
 70
     1
102
RTVSPropertyOp6
 70
     1
102
RTVSPropertyOp7
 70
     1
102
RTVSPropertyOp8
 70
     1
102
RTVSPropertyOp9
 70
     1
102
RTVSPropertyOp10
 70
     1
102
RTVSPropertyOp11
 70
     1
102
RTVSPropertyOp12
 70
     1
102
RTVSPropertyOp13
 70
     1
102
RTVSPropertyOp14
 70
     1
102
RTVSPropertyOp15
 70
     1
102
RTVSPropertyOp16
 70
     1
102
RTVSPropertyOp17
 70
     1
102
RTVSPropertyOp18
 70
     1
102
RTVSPropertyOp19
 70
     1
102
RTVSPropertyOp20
 70
     1
102
RTVSPropertyOp21
 70
     1
102
RTVSPropertyOp22
 70
     1
102
RTVSPropertyOp23
 70
     1
102
RTVSPropertyOp24
 70
     1
102
RTVSPropertyOp25
 70
     1
102
RTVSPropertyOp26
 70
     1
102
RTVSPropertyOp27
 70
     1
102
RTVSPropertyOp28
 70
     1
102
RTVSPropertyOp29
 70
     1
102
RTVSPropertyOp30
 70
     1
102
RTVSPropertyOp31
 70
     1
102
RTVSPropertyOp32
 70
     1
  0
XRECORD
  5
65
102
{ACAD_REACTORS
330
64
102
}
330
64
100
AcDbXrecord
280
     1
102
RTVSPropertyOp0
 70
     1
102
RTVSPropertyOp1
 70
     1
102
RTVSPropertyOp2
 70
     1
102
RTVSPropertyOp3
 70
     1
102
RTVSPropertyOp4
 70
     1
102
RTVSPropertyOp5
 70
     1
102
RTVSPropertyOp6
 70
     1
102
RTVSPropertyOp7
 70
     1
102
RTVSPropertyOp8
 70
     1
102
RTVSPropertyOp9
 70
     1
102
RTVSPropertyOp10
 70
     1
102
RTVSPropertyOp11
 70
     1
102
RTVSPropertyOp12
 70
     1
102
RTVSPropertyOp13
 70
     1
102
RTVSPropertyOp14
 70
     1
102
RTVSPropertyOp15
 70
     1
102
RTVSPropertyOp16
 70
     1
102
RTVSPropertyOp17
 70
     1
102
RTVSPropertyOp18
 70
     1
102
RTVSPropertyOp19
 70
     1
102
RTVSPropertyOp20
 70
     1
102
RTVSPropertyOp21
 70
     1
102
RTVSPropertyOp22
 70
     1
102
RTVSPropertyOp23
 70
     1
102
RTVSPropertyOp24
 70
     1
102
RTVSPropertyOp25
 70
     1
102
RTVSPropertyOp26
 70
     1
102
RTVSPropertyOp27
 70
     1
102
RTVSPropertyOp28
 70
     1
102
RTVSPropertyOp29
 70
     1
102
RTVSPropertyOp30
 70
     1
102
RTVSPropertyOp31
 70
     1
102
RTVSPropertyOp32
 70
     1
  0
XRECORD
  5
49
102
{ACAD_REACTORS
330
48
102
}
330
48
100
AcDbXrecord
280
     1
102
RTVSPropertyOp0
 70
     1
102
RTVSPropertyOp1
 70
     1
102
RTVSPropertyOp2
 70
     1
102
RTVSPropertyOp3
 70
     1
102
RTVSPropertyOp4
 70
     1
102
RTVSPropertyOp5
 70
     1
102
RTVSPropertyOp6
 70
     1
102
RTVSPropertyOp7
 70
     1
102
RTVSPropertyOp8
 70
     1
102
RTVSPropertyOp9
 70
     1
102
RTVSPropertyOp10
 70
     1
102
RTVSPropertyOp11
 70
     1
102
RTVSPropertyOp12
 70
     1
102
RTVSPropertyOp13
 70
     1
102
RTVSPropertyOp14
 70
     1
102
RTVSPropertyOp15
 70
     1
102
RTVSPropertyOp16
 70
     1
102
RTVSPropertyOp17
 70
     1
102
RTVSPropertyOp18
 70
     1
102
RTVSPropertyOp19
 70
     1
102
RTVSPropertyOp20
 70
     1
102
RTVSPropertyOp21
 70
     1
102
RTVSPropertyOp22
 70
     1
102
RTVSPropertyOp23
 70
     1
102
RTVSPropertyOp24
 70
     1
102
RTVSPropertyOp25
 70
     1
102
RTVSPropertyOp26
 70
     1
102
RTVSPropertyOp27
 70
     1
102
RTVSPropertyOp28
 70
     1
102
RTVSPropertyOp29
 70
     1
102
RTVSPropertyOp30
 70
     1
102
RTVSPropertyOp31
 70
     1
102
RTVSPropertyOp32
 70
     1
  0
XRECORD
  5
4B
102
{ACAD_REACTORS
330
4A
102
}
330
4A
100
AcDbXrecord
280
     1
102
RTVSPropertyOp0
 70
     1
102
RTVSPropertyOp1
 70
     1
102
RTVSPropertyOp2
 70
     1
102
RTVSPropertyOp3
 70
     1
102
RTVSPropertyOp4
 70
     1
102
RTVSPropertyOp5
 70
     1
102
RTVSPropertyOp6
 70
     1
102
RTVSPropertyOp7
 70
     1
102
RTVSPropertyOp8
 70
     1
102
RTVSPropertyOp9
 70
     1
102
RTVSPropertyOp10
 70
     1
102
RTVSPropertyOp11
 70
     1
102
RTVSPropertyOp12
 70
     1
102
RTVSPropertyOp13
 70
     1
102
RTVSPropertyOp14
 70
     1
102
RTVSPropertyOp15
 70
     1
102
RTVSPropertyOp16
 70
     1
102
RTVSPropertyOp17
 70
     1
102
RTVSPropertyOp18
 70
     1
102
RTVSPropertyOp19
 70
     1
102
RTVSPropertyOp20
 70
     1
102
RTVSPropertyOp21
 70
     1
102
RTVSPropertyOp22
 70
     1
102
RTVSPropertyOp23
 70
     1
102
RTVSPropertyOp24
 70
     1
102
RTVSPropertyOp25
 70
     1
102
RTVSPropertyOp26
 70
     1
102
RTVSPropertyOp27
 70
     1
102
RTVSPropertyOp28
 70
     1
102
RTVSPropertyOp29
 70
     1
102
RTVSPropertyOp30
 70
     1
102
RTVSPropertyOp31
 70
     1
102
RTVSPropertyOp32
 70
     1
  0
XRECORD
  5
4D
102
{ACAD_REACTORS
330
4C
102
}
330
4C
100
AcDbXrecord
280
     1
102
RTVSPropertyOp0
 70
     1
102
RTVSPropertyOp1
 70
     1
102
RTVSPropertyOp2
 70
     1
102
RTVSPropertyOp3
 70
     1
102
RTVSPropertyOp4
 70
     1
102
RTVSPropertyOp5
 70
     1
102
RTVSPropertyOp6
 70
     1
102
RTVSPropertyOp7
 70
     1
102
RTVSPropertyOp8
 70
     1
102
RTVSPropertyOp9
 70
     1
102
RTVSPropertyOp10
 70
     1
102
RTVSPropertyOp11
 70
     1
102
RTVSPropertyOp12
 70
     1
102
RTVSPropertyOp13
 70
     1
102
RTVSPropertyOp14
 70
     1
102
RTVSPropertyOp15
 70
     1
102
RTVSPropertyOp16
 70
     1
102
RTVSPropertyOp17
 70
     1
102
RTVSPropertyOp18
 70
     1
102
RTVSPropertyOp19
 70
     1
102
RTVSPropertyOp20
 70
     1
102
RTVSPropertyOp21
 70
     1
102
RTVSPropertyOp22
 70
     1
102
RTVSPropertyOp23
 70
     1
102
RTVSPropertyOp24
 70
     1
102
RTVSPropertyOp25
 70
     1
102
RTVSPropertyOp26
 70
     1
102
RTVSPropertyOp27
 70
     1
102
RTVSPropertyOp28
 70
     1
102
RTVSPropertyOp29
 70
     1
102
RTVSPropertyOp30
 70
     1
102
RTVSPropertyOp31
 70
     1
102
RTVSPropertyOp32
 70
     1
  0
XRECORD
  5
4F
102
{ACAD_REACTORS
330
4E
102
}
330
4E
100
AcDbXrecord
280
     1
102
RTVSPropertyOp0
 70
     1
102
RTVSPropertyOp1
 70
     1
102
RTVSPropertyOp2
 70
     1
102
RTVSPropertyOp3
 70
     1
102
RTVSPropertyOp4
 70
     1
102
RTVSPropertyOp5
 70
     1
102
RTVSPropertyOp6
 70
     1
102
RTVSPropertyOp7
 70
     1
102
RTVSPropertyOp8
 70
     1
102
RTVSPropertyOp9
 70
     1
102
RTVSPropertyOp10
 70
     1
102
RTVSPropertyOp11
 70
     1
102
RTVSPropertyOp12
 70
     1
102
RTVSPropertyOp13
 70
     1
102
RTVSPropertyOp14
 70
     1
102
RTVSPropertyOp15
 70
     1
102
RTVSPropertyOp16
 70
     1
102
RTVSPropertyOp17
 70
     1
102
RTVSPropertyOp18
 70
     1
102
RTVSPropertyOp19
 70
     1
102
RTVSPropertyOp20
 70
     1
102
RTVSPropertyOp21
 70
     1
102
RTVSPropertyOp22
 70
     1
102
RTVSPropertyOp23
 70
     1
102
RTVSPropertyOp24
 70
     1
102
RTVSPropertyOp25
 70
     1
102
RTVSPropertyOp26
 70
     1
102
RTVSPropertyOp27
 70
     1
102
RTVSPropertyOp28
 70
     1
102
RTVSPropertyOp29
 70
     1
102
RTVSPropertyOp30
 70
     1
102
RTVSPropertyOp31
 70
     1
102
RTVSPropertyOp32
 70
     1
  0
XRECORD
  5
63
102
{ACAD_REACTORS
330
62
102
}
330
62
100
AcDbXrecord
280
     1
102
RTVSPropertyOp0
 70
     1
102
RTVSPropertyOp1
 70
     1
102
RTVSPropertyOp2
 70
     1
102
RTVSPropertyOp3
 70
     1
102
RTVSPropertyOp4
 70
     1
102
RTVSPropertyOp5
 70
     1
102
RTVSPropertyOp6
 70
     1
102
RTVSPropertyOp7
 70
     1
102
RTVSPropertyOp8
 70
     1
102
RTVSPropertyOp9
 70
     1
102
RTVSPropertyOp10
 70
     1
102
RTVSPropertyOp11
 70
     1
102
RTVSPropertyOp12
 70
     1
102
RTVSPropertyOp13
 70
     1
102
RTVSPropertyOp14
 70
     1
102
RTVSPropertyOp15
 70
     1
102
RTVSPropertyOp16
 70
     1
102
RTVSPropertyOp17
 70
     1
102
RTVSPropertyOp18
 70
     1
102
RTVSPropertyOp19
 70
     1
102
RTVSPropertyOp20
 70
     1
102
RTVSPropertyOp21
 70
     1
102
RTVSPropertyOp22
 70
     1
102
RTVSPropertyOp23
 70
     1
102
RTVSPropertyOp24
 70
     1
102
RTVSPropertyOp25
 70
     1
102
RTVSPropertyOp26
 70
     1
102
RTVSPropertyOp27
 70
     1
102
RTVSPropertyOp28
 70
     1
102
RTVSPropertyOp29
 70
     1
102
RTVSPropertyOp30
 70
     1
102
RTVSPropertyOp31
 70
     1
102
RTVSPropertyOp32
 70
     1
  0
XRECORD
  5
59
102
{ACAD_REACTORS
330
58
102
}
330
58
100
AcDbXrecord
280
     1
102
RTVSPropertyOp0
 70
     1
102
RTVSPropertyOp1
 70
     1
102
RTVSPropertyOp2
 70
     1
102
RTVSPropertyOp3
 70
     1
102
RTVSPropertyOp4
 70
     1
102
RTVSPropertyOp5
 70
     1
102
RTVSPropertyOp6
 70
     1
102
RTVSPropertyOp7
 70
     1
102
RTVSPropertyOp8
 70
     1
102
RTVSPropertyOp9
 70
     1
102
RTVSPropertyOp10
 70
     1
102
RTVSPropertyOp11
 70
     1
102
RTVSPropertyOp12
 70
     1
102
RTVSPropertyOp13
 70
     1
102
RTVSPropertyOp14
 70
     1
102
RTVSPropertyOp15
 70
     1
102
RTVSPropertyOp16
 70
     1
102
RTVSPropertyOp17
 70
     1
102
RTVSPropertyOp18
 70
     1
102
RTVSPropertyOp19
 70
     1
102
RTVSPropertyOp20
 70
     1
102
RTVSPropertyOp21
 70
     1
102
RTVSPropertyOp22
 70
     1
102
RTVSPropertyOp23
 70
     1
102
RTVSPropertyOp24
 70
     1
102
RTVSPropertyOp25
 70
     1
102
RTVSPropertyOp26
 70
     1
102
RTVSPropertyOp27
 70
     1
102
RTVSPropertyOp28
 70
     1
102
RTVSPropertyOp29
 70
     1
102
RTVSPropertyOp30
 70
     1
102
RTVSPropertyOp31
 70
     1
102
RTVSPropertyOp32
 70
     1
  0
XRECORD
  5
61
102
{ACAD_REACTORS
330
60
102
}
330
60
100
AcDbXrecord
280
     1
102
RTVSPropertyOp0
 70
     1
102
RTVSPropertyOp1
 70
     1
102
RTVSPropertyOp2
 70
     1
102
RTVSPropertyOp3
 70
     1
102
RTVSPropertyOp4
 70
     1
102
RTVSPropertyOp5
 70
     1
102
RTVSPropertyOp6
 70
     1
102
RTVSPropertyOp7
 70
     1
102
RTVSPropertyOp8
 70
     1
102
RTVSPropertyOp9
 70
     1
102
RTVSPropertyOp10
 70
     1
102
RTVSPropertyOp11
 70
     1
102
RTVSPropertyOp12
 70
     1
102
RTVSPropertyOp13
 70
     1
102
RTVSPropertyOp14
 70
     1
102
RTVSPropertyOp15
 70
     1
102
RTVSPropertyOp16
 70
     1
102
RTVSPropertyOp17
 70
     1
102
RTVSPropertyOp18
 70
     1
102
RTVSPropertyOp19
 70
     1
102
RTVSPropertyOp20
 70
     1
102
RTVSPropertyOp21
 70
     1
102
RTVSPropertyOp22
 70
     1
102
RTVSPropertyOp23
 70
     1
102
RTVSPropertyOp24
 70
     1
102
RTVSPropertyOp25
 70
     1
102
RTVSPropertyOp26
 70
     1
102
RTVSPropertyOp27
 70
     1
102
RTVSPropertyOp28
 70
     1
102
RTVSPropertyOp29
 70
     1
102
RTVSPropertyOp30
 70
     1
102
RTVSPropertyOp31
 70
     1
102
RTVSPropertyOp32
 70
     1
  0
ENDSEC
  0
EOF
